<svg width="25" height="11" viewBox="0 0 25 11" fill="none" xmlns="http://www.w3.org/2000/svg">
<path d="M19.5 0C20.8807 1.28851e-07 22 1.11929 22 2.5V8C22 9.38071 20.8807 10.5 19.5 10.5H2.5C1.11929 10.5 4.02665e-09 9.38071 0 8V2.5C0 1.11929 1.11929 0 2.5 0H19.5ZM3 1C1.89543 1 1 1.89543 1 3V7.5C1 8.60457 1.89543 9.5 3 9.5H19C20.1046 9.5 21 8.60457 21 7.5V3C21 1.89543 20.1046 1 19 1H3Z" fill="#ABABAB"/>
<path d="M23 3.50195C23.8622 3.7241 24.4998 4.50498 24.5 5.43652C24.5 6.36819 23.8623 7.14883 23 7.37109V3.50195Z" fill="#ABABAB"/>
<rect x="2" y="2" width="18" height="6.5" rx="1" fill="#060606"/>
</svg>
