<svg width="30" height="30" viewBox="0 0 30 30" fill="none" xmlns="http://www.w3.org/2000/svg">
<path d="M10 18.75C12.035 18.75 13.75 17.035 13.75 15C13.75 12.965 12.035 11.25 10 11.25C7.965 11.25 6.25 12.965 6.25 15C6.25 17.035 7.965 18.75 10 18.75Z" fill="#115EF7"/>
<path d="M10 22.5H20C24.12 22.5 27.4775 19.1475 27.5 15.0175V14.965C27.4875 12.983 26.6922 11.0862 25.2874 9.68794C23.8825 8.28969 21.9821 7.50326 20 7.5H10C5.86375 7.5 2.5 10.8638 2.5 15C2.5 19.1363 5.86375 22.5 10 22.5ZM10 10H20C21.3233 10.002 22.592 10.5277 23.5289 11.4622C24.4658 12.3968 24.9947 13.6642 25 14.9875C24.995 17.7512 22.7525 20 20 20H10C7.2425 20 5 17.7575 5 15C5 12.2425 7.2425 10 10 10Z" fill="#115EF7"/>
</svg>
