<svg width="14" height="14" viewBox="0 0 14 14" fill="none" xmlns="http://www.w3.org/2000/svg">
<path d="M2.91673 1.74999V12.25C2.91706 12.3563 2.94638 12.4605 3.00153 12.5514C3.05668 12.6423 3.13557 12.7164 3.22972 12.7658C3.32386 12.8152 3.42969 12.8379 3.53581 12.8316C3.64193 12.8253 3.74433 12.7902 3.83198 12.7301L11.4153 7.48007C11.7297 7.26249 11.7297 6.73866 11.4153 6.52049L3.83198 1.27049C3.74451 1.20972 3.64206 1.17408 3.53576 1.16745C3.42946 1.16082 3.32338 1.18345 3.22904 1.23287C3.1347 1.2823 3.0557 1.35663 3.00064 1.4478C2.94558 1.53897 2.91656 1.64348 2.91673 1.74999Z" fill="black"/>
</svg>
