<svg width="14" height="14" viewBox="0 0 14 14" fill="none" xmlns="http://www.w3.org/2000/svg">
<path d="M11.0833 12.25V1.75001C11.0829 1.6437 11.0536 1.5395 10.9985 1.44862C10.9433 1.35773 10.8644 1.28361 10.7703 1.23423C10.6761 1.18485 10.5703 1.16208 10.4642 1.16837C10.3581 1.17466 10.2557 1.20977 10.168 1.26993L2.58469 6.51993C2.27027 6.73751 2.27027 7.26134 2.58469 7.47951L10.168 12.7295C10.2555 12.7903 10.3579 12.8259 10.4642 12.8325C10.5705 12.8392 10.6766 12.8166 10.771 12.7671C10.8653 12.7177 10.9443 12.6434 10.9994 12.5522C11.0544 12.461 11.0834 12.3565 11.0833 12.25Z" fill="black"/>
</svg>
