<svg width="65" height="72" viewBox="0 0 65 72" fill="none" xmlns="http://www.w3.org/2000/svg">
<path d="M35.5745 31.9189H35.5192C35.2411 33.0626 34.929 34.1977 34.5832 35.3225L32.7632 40.7651H38.35L36.5397 35.3455C36.127 34.1247 35.8507 33.0087 35.5745 31.9189ZM65.4127 44.2669C66.0001 42.6727 66.219 40.9647 66.0529 39.2725C65.8868 37.5804 65.34 35.9486 64.454 34.5011C65.0065 31.3462 64.3511 29.1851 62.4877 28.0178C62.8907 24.4898 62.3187 22.2065 60.7717 21.168C60.8647 20.3061 60.7039 19.4357 60.3092 18.6652C59.9145 17.8947 59.3034 17.2582 58.552 16.8349C58.5277 15.492 58.02 14.2036 57.1234 13.2092C56.2267 12.2148 55.0021 11.582 53.677 11.4284C52.7345 9.30764 50.3728 8.18509 46.592 8.06073C43.0907 5.84182 40.2794 6.06 38.1582 8.71527C38.0607 8.02145 37.3837 7.53491 36.127 7.25564C33.3207 6.80068 30.4448 7.35323 28.002 8.81673C27.5759 9.04244 27.1338 9.23606 26.6792 9.396C22.4542 11.34 20.2432 13.4247 20.046 15.6502C19.2205 16.2741 18.5888 17.1222 18.225 18.0949C17.8612 19.0675 17.7804 20.1245 17.992 21.1418C17.2598 21.6508 16.7121 22.386 16.4318 23.2363C16.1516 24.0866 16.1539 25.0057 16.4385 25.8545C15.6909 26.3752 15.0992 27.0922 14.7279 27.9277C14.3566 28.7632 14.2199 29.6852 14.3325 30.5935C13.9137 31.1222 13.6057 31.7309 13.427 32.3828C13.2482 33.0347 13.2025 33.7163 13.2925 34.3865C12.5154 35.1396 12.0007 36.1254 11.825 37.1969C11.6494 38.2684 11.8221 39.3684 12.3175 40.3331C11.8018 42.2768 11.9813 44.3412 12.8245 46.1651C12.6961 49.4771 13.8792 52.705 16.1135 55.1389C17.1313 56.7587 17.9694 58.4861 18.6127 60.2902C19.6673 61.7812 20.8742 63.1567 22.2137 64.3942C23.6957 67.1171 25.3262 68.3444 27.105 68.076C27.6489 69.0223 28.4967 69.7538 29.5086 70.15C30.5206 70.5462 31.6364 70.5835 32.6722 70.2556C34.9602 72.0338 36.5343 71.8069 37.3945 69.5749C38.2135 68.4076 38.935 68.3705 39.559 69.4636C40.9868 72.7582 44.2845 72.8422 49.452 69.7156C50.6206 69.8111 51.789 69.5274 52.786 68.9062C53.7831 68.2849 54.5565 67.3586 54.9932 66.2629C55.5907 66.1832 56.166 65.9828 56.6847 65.6738C57.2033 65.3647 57.6547 64.9533 58.0116 64.4643C58.3685 63.9753 58.6237 63.4188 58.7618 62.828C58.8999 62.2373 58.9181 61.6245 58.8152 61.0265C59.2926 60.4975 59.6991 59.9078 60.0242 59.2724C62.9817 58.5044 64.6067 56.0411 64.8992 51.8825C65.6959 50.7941 66.1675 49.4992 66.2584 48.1501C66.3494 46.801 66.056 45.4538 65.4127 44.2669ZM39.2112 9.49091C41.0616 7.056 43.2987 6.98945 45.9225 9.29127L46.0427 9.24873C48.8789 8.26255 51.2395 9.39491 53.1245 12.6458C55.341 12.9578 56.8577 14.6007 57.6745 17.5745C58.357 17.9023 58.9015 18.4638 59.2105 19.1588C59.5195 19.8537 59.573 20.6367 59.3612 21.3676L60.177 22.3855C60.7726 23.2882 61.1856 24.3003 61.3925 25.3639C61.5994 26.4275 61.5961 27.5217 61.3827 28.584V28.6265C60.8044 28.4978 60.2031 28.5185 59.6348 28.6867C59.0666 28.8549 58.5498 29.1652 58.1327 29.5887L57.2292 28.1455C56.4217 27.4673 55.3813 27.1369 54.3335 27.2258V26.6727C54.333 24.9086 53.7983 23.1865 52.8007 21.7363C51.8031 20.2861 50.39 19.1768 48.75 18.5564C49.4491 18.0777 50.306 17.8922 51.1387 18.0393C50.6577 17.9825 50.3013 17.4545 50.0695 16.4553C49.794 16.2982 49.5848 16.0453 49.4813 15.7441C49.3778 15.4428 49.387 15.1138 49.5072 14.8189C48.0794 12.3491 47.3113 11.8036 47.203 13.1825C47.622 13.8359 47.8013 14.6161 47.71 15.3884C48.919 16.1084 49.4065 16.6745 49.1725 17.0869L47.606 18.2258C46.9933 18.0901 46.3679 18.021 45.7405 18.0196H43.433C43.381 17.9542 43.3257 17.8887 43.2672 17.8233C41.3172 16.1345 40.4928 14.832 40.794 13.9156C40.6445 12.2705 41.6379 11.2331 43.7742 10.8033C44.9247 10.4433 44.8164 10.1596 43.4492 9.95236C40.7452 10.4673 39.4897 11.9585 39.6825 14.4262L38.0575 14.652C37.8943 13.7578 37.9124 12.8397 38.1107 11.9527C38.3089 11.0658 38.6833 10.2284 39.2112 9.49091ZM47.125 32.7829C46.9298 32.7848 46.7363 32.7469 46.556 32.6714C46.3758 32.596 46.2126 32.4845 46.0762 32.3439C45.9399 32.2032 45.8332 32.0362 45.7627 31.8529C45.6921 31.6697 45.6592 31.4739 45.6657 31.2775C45.66 31.0751 45.6951 30.8738 45.7691 30.6855C45.843 30.4973 45.9542 30.3262 46.0958 30.1827C46.2375 30.0391 46.4067 29.926 46.5931 29.8504C46.7795 29.7747 46.9793 29.738 47.1802 29.7425C47.3841 29.7376 47.5868 29.7741 47.7762 29.8501C47.9656 29.9261 48.1378 30.0399 48.2824 30.1846C48.427 30.3293 48.541 30.502 48.6176 30.6923C48.6942 30.8826 48.7317 31.0865 48.728 31.2918C48.7243 31.497 48.6793 31.6994 48.5959 31.8867C48.5124 32.0741 48.3922 32.2425 48.2425 32.3818C48.0927 32.5211 47.9165 32.6284 47.7245 32.6974C47.5324 32.7663 47.3285 32.7954 47.125 32.7829ZM48.3925 35.0738V48.5804H45.968V35.0705L48.3925 35.0738ZM41.7397 17.6433C41.6381 17.7413 41.5708 17.87 41.548 18.0098H38.5417C38.4029 17.0101 38.213 16.0183 37.973 15.0382L39.546 14.8124C39.2318 16.2196 39.9631 17.1633 41.7397 17.6433ZM23.1725 12.6393L23.8517 12.708C23.8951 12.4462 24.3544 11.9847 25.2297 11.3236L25.454 11.5756L23.9622 13.0909H22.8312L23.1725 12.6393ZM22.3827 13.6735C22.8865 13.6538 23.7022 13.6342 24.8625 13.6145C24.9427 13.6145 25.9545 12.6524 27.898 10.728H28.8535C28.9062 10.5837 29.0076 10.4627 29.1399 10.3862C29.2723 10.3097 29.4272 10.2825 29.5775 10.3094C29.7277 10.3363 29.8638 10.4157 29.9618 10.5335C30.0599 10.6513 30.1136 10.8001 30.1136 10.9538C30.1136 11.1075 30.0599 11.2563 29.9618 11.3742C29.8638 11.492 29.7277 11.5713 29.5775 11.5982C29.4272 11.6252 29.2723 11.598 29.1399 11.5214C29.0076 11.4449 28.9062 11.3239 28.8535 11.1796H27.9272L25.0867 14.0956L22.048 14.1415L22.3827 13.6735ZM21.5865 14.832H26.4615L27.924 13.4575L28.8145 13.4804C28.8595 13.2891 28.9727 13.1212 29.1326 13.0085C29.2924 12.8957 29.4879 12.8461 29.6817 12.8689C29.8756 12.8917 30.0543 12.9854 30.1841 13.1322C30.3138 13.279 30.3855 13.4687 30.3855 13.6653C30.3855 13.8618 30.3138 14.0515 30.1841 14.1983C30.0543 14.3451 29.8756 14.4389 29.6817 14.4617C29.4879 14.4845 29.2924 14.4348 29.1326 14.3221C28.9727 14.2094 28.8595 14.0414 28.8145 13.8502H27.9857L26.5785 15.2935L21.3395 15.2313C21.4175 15.1004 21.4998 14.9673 21.5865 14.832ZM20.8682 15.9349L29.5522 15.9087L35.1 10.4727H37.414L37.3165 10.9538H35.2105L29.7472 16.3342L20.6472 16.2491L20.8682 15.9349ZM35.8182 17.5451H37.388V17.9607L35.9742 17.9411L35.9125 18.0033H35.3275L35.8182 17.5451ZM34.905 16.3964L33.2345 18.0098H32.6722L34.8075 15.9513H37.1117V16.3767L34.905 16.3964ZM19.8932 17.5484L30.4785 17.5287L30.641 17.3815C30.836 17.1785 31.9193 16.1869 33.891 14.4065L37.1247 14.4327V14.8124H33.8975L30.4915 18L19.7177 17.9345C19.7697 17.8135 19.825 17.6727 19.8932 17.5484ZM19.3277 19.1422L28.665 19.1193C28.4134 19.2642 28.1683 19.4204 27.9305 19.5873L19.2367 19.5676C19.2624 19.4248 19.2927 19.2829 19.3277 19.1422ZM17.9497 23.292C18.5521 22.5167 19.2116 21.7881 19.9225 21.1124H19.1457V20.6804L26.7085 20.6411C26.5758 20.7751 26.4489 20.9149 26.3282 21.06L20.4977 21.1091L18.1447 23.5047L18.2292 29.6411C18.3961 29.7895 19.305 30.6218 20.956 32.1382V32.9007L23.1497 34.9691L23.179 38.0258L24.2775 39.1255V39.6164L22.854 38.196L22.7987 35.0182L20.605 32.9793V32.1938L17.875 29.7327L17.9497 23.292ZM22.7175 56.1175V55.5513H23.127V56.1175H22.7175ZM23.127 56.304V57.5345H22.724V56.2909L23.127 56.304ZM22.6817 47.7098V47.1731H23.1497V47.7098H22.6817ZM19.9972 40.1433V38.3335L18.6972 36.9785C18.5998 37.0408 18.4876 37.0758 18.3722 37.08C18.2935 37.0633 18.2211 37.0245 18.1633 36.968C18.1056 36.9115 18.065 36.8398 18.0461 36.761C18.0272 36.6822 18.0309 36.5997 18.0568 36.5229C18.0826 36.4462 18.1295 36.3784 18.192 36.3273C18.2545 36.2763 18.3301 36.2442 18.41 36.2347C18.49 36.2252 18.5709 36.2387 18.6435 36.2736C18.7161 36.3086 18.7774 36.3635 18.8203 36.4321C18.8632 36.5006 18.8859 36.5801 18.8857 36.6611C18.887 36.7083 18.8781 36.7552 18.8597 36.7985L20.1987 38.1076V39.9469C22.4315 42.1756 23.7737 43.524 24.2937 44.0444V46.6985H24.0207L24.0467 45.7462H24.1767L24.2157 44.3487L19.9972 40.1433ZM22.4347 47.1731V47.7098H21.9082V47.1731H22.4347ZM21.9115 46.7116V45.7593H22.425V46.7116H21.9115ZM21.7425 47.1731V47.7098H21.2095V47.1731H21.7425ZM21.0177 47.7098H20.5562V47.1731H21.0145L21.0177 47.7098ZM20.3677 45.7462V46.6985H19.7177V45.7462H19.9972C20.0564 45.422 20.0912 45.0938 20.1012 44.7644C20.0301 44.7955 19.9523 44.8082 19.8749 44.8013C19.7976 44.7944 19.7232 44.7681 19.6586 44.7249C19.594 44.6816 19.5411 44.6227 19.5049 44.5536C19.4687 44.4844 19.4502 44.4072 19.4512 44.3291C19.4459 44.2641 19.4539 44.1987 19.4749 44.1371C19.4959 44.0754 19.5294 44.0188 19.5732 43.9708C19.617 43.9228 19.6703 43.8845 19.7296 43.8583C19.7888 43.8321 19.8529 43.8186 19.9176 43.8186C19.9824 43.8186 20.0464 43.8321 20.1057 43.8583C20.165 43.8845 20.2182 43.9228 20.262 43.9708C20.3059 44.0188 20.3393 44.0754 20.3603 44.1371C20.3813 44.1987 20.3894 44.2641 20.384 44.3291C20.3831 44.3948 20.3691 44.4596 20.3429 44.5198C20.3166 44.5799 20.2787 44.6342 20.2312 44.6793C20.1986 45.0386 20.1759 45.3987 20.163 45.7593L20.3677 45.7462ZM19.1912 48.6295V49.1171H18.681V48.6295H18.9767C19.1436 48.2312 19.3955 47.8747 19.7145 47.5855V47.16H20.3645V47.6967H19.8672C19.583 47.9635 19.3485 48.2794 19.175 48.6295H19.1912ZM18.6842 53.3618V52.7891H19.175V53.3684L18.6842 53.3618ZM19.1912 53.5516V54.072H18.681V53.5549L19.1912 53.5516ZM18.6842 52.5993V52.1084H19.175V52.6025L18.6842 52.5993ZM18.6842 51.9185V51.4571H19.175V51.9218L18.6842 51.9185ZM18.6842 51.264V50.7469H19.175V51.2673L18.6842 51.264ZM18.6842 50.5571V50.0727H19.175V50.5669L18.6842 50.5571ZM18.6842 49.8796V49.32H19.175V49.896L18.6842 49.8796ZM22.1812 32.7404V31.5098C21.0428 31.0995 20.0904 30.2881 19.5 29.2255L19.825 29.1469C19.9513 29.3615 20.0936 29.5661 20.2507 29.7589H20.9852V30.0535H20.5107C20.7992 30.3545 21.1273 30.6144 21.4857 30.8258L21.5052 30.0469H21.125V29.7491H22.685V30.0404H21.9245V31.0484C22.4417 31.2906 22.9996 31.4327 23.569 31.4673V30.0273H22.8572V29.7327H24.31V30.0207H24.0207V31.4705L24.2905 31.4542V36.4615L24.2287 32.7862H23.7932V31.9156H23.3707V32.7862H22.9287V33.4865L23.842 34.4978C23.8972 36.396 23.9687 37.5284 23.9687 37.5284L24.2937 37.8556V38.2647C23.8669 37.8065 23.6448 37.5884 23.6275 37.6102C23.7301 36.5888 23.683 35.5578 23.4877 34.5502C23.1736 34.2314 22.8815 33.8914 22.6135 33.5324V32.7698L22.1812 32.7404ZM23.075 26.8822C23.0147 26.8714 22.9527 26.874 22.8935 26.8899C22.8343 26.9058 22.7792 26.9345 22.7323 26.9742C22.6853 27.0138 22.6475 27.0633 22.6216 27.1192C22.5956 27.1751 22.5822 27.2361 22.5822 27.2978C22.5822 27.3595 22.5956 27.4205 22.6216 27.4764C22.6475 27.5323 22.6853 27.5818 22.7323 27.6215C22.7792 27.6611 22.8343 27.6899 22.8935 27.7058C22.9527 27.7217 23.0147 27.7243 23.075 27.7135H23.1725L23.4227 27.9851C23.3116 28.027 23.1937 28.048 23.075 28.0473C22.9714 28.057 22.8669 28.0449 22.7683 28.0117C22.6696 27.9785 22.5789 27.9249 22.502 27.8543C22.4251 27.7838 22.3637 27.6978 22.3216 27.602C22.2796 27.5062 22.2579 27.4026 22.2579 27.2978C22.2579 27.1931 22.2796 27.0894 22.3216 26.9936C22.3637 26.8978 22.4251 26.8119 22.502 26.7413C22.5789 26.6708 22.6696 26.6172 22.7683 26.584C22.8669 26.5507 22.9714 26.5386 23.075 26.5484C23.2509 26.5445 23.4234 26.5982 23.5664 26.7015C23.7094 26.8048 23.8152 26.952 23.868 27.1211H24.2807V27.4484H23.8745C23.8299 27.6389 23.7133 27.8044 23.5495 27.9098L23.2992 27.6709C23.3694 27.6388 23.4295 27.588 23.473 27.5239C23.5166 27.4599 23.5419 27.3851 23.5462 27.3076C23.5379 27.189 23.4841 27.0783 23.3961 26.9989C23.3082 26.9195 23.193 26.8776 23.075 26.8822ZM20.6147 26.2276H20.371C19.7925 26.2276 19.396 26.244 19.214 26.2604C19.214 26.4305 19.188 26.5876 19.188 26.7775C19.1845 27.3361 19.2826 27.8907 19.4772 28.4138C21.7197 28.3876 23.3772 28.3844 24.1995 28.3844C24.2055 28.2892 24.2321 28.1965 24.2775 28.1127V28.8L24.2352 28.6985C21.7815 28.6985 20.111 28.7378 19.617 28.7509C19.6603 28.8425 19.7058 28.9331 19.7535 29.0225L19.4285 29.1142C19.0455 28.3947 18.8466 27.5905 18.85 26.7742C18.8485 25.9601 19.043 25.1577 19.4171 24.436C19.7911 23.7142 20.3334 23.0946 20.9974 22.6303C21.6615 22.1659 22.4275 21.8707 23.2297 21.7699C24.032 21.6691 24.8465 21.7658 25.6035 22.0516C24.8154 23.3041 24.362 24.7403 24.2872 26.2211C22.7012 26.2145 21.476 26.2156 20.6115 26.2244L20.6147 26.2276ZM24.479 55.5545V56.1207H23.998V55.5545H24.479ZM24.479 56.3105V57.5378H23.9947V56.2909L24.479 56.3105ZM24.0175 47.7098V47.1731H24.2775V47.7098H24.0175ZM23.8485 47.1731V47.7098H23.3155V47.1731H23.8485ZM23.296 56.304H23.829V57.5313H23.699C23.8582 57.9076 24.024 58.5131 24.1637 58.7585H25.9057L26.0942 59.0105C25.5872 58.9887 24.9188 58.9756 24.089 58.9713C23.8409 58.5261 23.6632 58.0447 23.5625 57.5444H23.2927L23.296 56.304ZM15.5545 29.484L17.7612 31.8469V33.192C18.2877 33.7549 18.6225 34.1149 18.8012 34.3309L19.0612 34.6582C19.5812 34.6778 20.4262 34.6811 20.4262 34.6811C20.8869 35.1146 21.2978 35.5987 21.6515 36.1244C21.7165 38.1273 21.7295 38.9716 21.7295 38.9716C22.6525 39.9295 23.4975 40.8022 24.2645 41.5898V41.9465C22.412 40.0778 21.4435 39.1156 21.4435 39.1156C21.3687 37.1356 21.3882 36.1931 21.3882 36.1931C21.0432 35.7577 20.68 35.3374 20.2995 34.9331C19.847 34.9569 19.3935 34.9569 18.941 34.9331L18.9052 34.9004L18.6127 34.5993C18.3526 34.3317 18.1 34.0567 17.8555 33.7745L17.381 33.2738L17.4102 31.9844L15.3855 29.9618L15.5545 29.484ZM18.3982 54.8378H17.2477V54.2782H18.3982V54.8378ZM18.3982 53.3749H17.2477V52.8055H18.3982V53.3749ZM18.3982 51.9316H17.2477V51.6633C17.0005 51.6357 16.7544 51.5986 16.51 51.552C16.4989 51.606 16.4729 51.6557 16.4349 51.6953C16.3969 51.735 16.3485 51.763 16.2953 51.776C16.2422 51.7891 16.1864 51.7867 16.1346 51.7692C16.0827 51.7516 16.0368 51.7196 16.0023 51.6768C15.9678 51.6341 15.946 51.5823 15.9395 51.5276C15.933 51.4729 15.9421 51.4175 15.9656 51.3677C15.9892 51.318 16.0263 51.276 16.0726 51.2466C16.1189 51.2173 16.1725 51.2017 16.2272 51.2018C16.2921 51.2029 16.3548 51.2257 16.4054 51.2666C16.456 51.3075 16.4916 51.3641 16.5067 51.4276C16.6584 51.4604 16.9054 51.5018 17.2477 51.552V51.48H18.3982V51.9316ZM18.3982 50.5735H17.2477V50.2887C16.9227 50.2331 16.7115 50.1971 16.5652 50.1676C16.5337 50.242 16.476 50.302 16.4032 50.3361C16.3304 50.3701 16.2477 50.3758 16.1709 50.3521C16.0942 50.3284 16.0288 50.2769 15.9876 50.2075C15.9463 50.1382 15.9319 50.0559 15.9473 49.9766C15.9627 49.8972 16.0067 49.8264 16.0708 49.7778C16.135 49.7292 16.2147 49.7062 16.2947 49.7132C16.3747 49.7203 16.4492 49.7569 16.504 49.816C16.5587 49.8752 16.5898 49.9526 16.5912 50.0335L17.2412 50.1415V50.0727H18.3917L18.3982 50.5735ZM18.3982 49.1302H17.2477V48.6425H18.3982V49.1302ZM18.2552 47.0389L17.9302 46.8524H16.7635L15.7657 48.0109C15.1725 47.9499 14.5747 47.9499 13.9815 48.0109L13.9392 46.0996L14.1342 45.9033C13.8069 45.5979 13.5499 45.2239 13.3815 44.8078C13.2131 44.3916 13.1372 43.9434 13.1592 43.4945C13.0682 41.8058 13.1907 40.7825 13.5265 40.4247C13.6522 40.3156 13.5622 39.8793 13.2567 39.1156C13.0722 38.6492 12.9968 38.1462 13.0362 37.6456C13.0757 37.1451 13.229 36.6604 13.4842 36.2291C13.5526 35.9344 13.6783 35.6563 13.854 35.4109C14.0297 35.1654 14.252 34.9574 14.508 34.7989H14.5307V34.776C14.3094 34.4613 14.1985 34.0813 14.2156 33.6961C14.2326 33.3108 14.3767 32.9423 14.625 32.6487L15.7495 33.3033L15.7202 38.0029L18.447 40.6211L16.575 40.5818C16.541 40.3472 16.4181 40.135 16.2321 39.9898C16.046 39.8446 15.8113 39.7776 15.5772 39.8029C15.459 39.7718 15.3352 39.7684 15.2155 39.7929C15.0957 39.8175 14.9831 39.8694 14.8864 39.9446C14.7896 40.0198 14.7113 40.1164 14.6574 40.2268C14.6035 40.3373 14.5755 40.4587 14.5755 40.5818C14.5755 40.7049 14.6035 40.8263 14.6574 40.9368C14.7113 41.0473 14.7896 41.1438 14.8864 41.219C14.9831 41.2943 15.0957 41.3462 15.2155 41.3707C15.3352 41.3953 15.459 41.3919 15.5772 41.3607C15.7813 41.3771 15.9852 41.3283 16.1602 41.2214C16.3352 41.1145 16.4724 40.9549 16.5522 40.7651L18.4795 40.8011L18.4535 42.7124H17.3745C17.3165 42.5492 17.2076 42.4094 17.064 42.3138C16.9205 42.2182 16.75 42.172 16.5782 42.1822C16.4793 42.1638 16.3776 42.1676 16.2803 42.1932C16.183 42.2189 16.0924 42.2657 16.0151 42.3305C15.9378 42.3953 15.8756 42.4765 15.8329 42.5682C15.7902 42.6599 15.7681 42.76 15.7681 42.8613C15.7681 42.9626 15.7902 43.0626 15.8329 43.1543C15.8756 43.2461 15.9378 43.3272 16.0151 43.392C16.0924 43.4568 16.183 43.5037 16.2803 43.5293C16.3776 43.555 16.4793 43.5587 16.5782 43.5404C16.7598 43.5531 16.9401 43.5016 17.0879 43.3946C17.2357 43.2876 17.3417 43.1319 17.3875 42.9545H18.4925C18.4643 44.3618 18.4513 45.0698 18.4535 45.0785L17.368 45.0491C17.3001 44.8745 17.1788 44.7261 17.0216 44.6255C16.8645 44.5249 16.6796 44.4772 16.4937 44.4895C16.3557 44.5185 16.2286 44.5863 16.1272 44.6849C16.0257 44.7836 15.9541 44.9092 15.9205 45.0471C15.8869 45.1851 15.8928 45.3298 15.9374 45.4645C15.9821 45.5992 16.0636 45.7185 16.1727 45.8085C16.2818 45.8985 16.414 45.9556 16.5539 45.9732C16.6939 45.9908 16.8359 45.9682 16.9636 45.9079C17.0913 45.8477 17.1995 45.7523 17.2757 45.6327C17.3518 45.5132 17.3929 45.3744 17.394 45.2324L18.4795 45.2618V46.3516L19.4902 47.3695L19.1262 47.7524L18.2552 47.0389ZM21.1802 58.4378C21.1799 58.3523 21.2098 58.2694 21.2645 58.204C21.3193 58.1387 21.3954 58.0951 21.4792 58.0811V57.5345H21.2095V56.4513L21.0372 56.4022V57.5345H20.5107V56.3007H20.735C20.5814 56.2413 20.4326 56.1702 20.2897 56.088V56.1175H19.6982V55.6658C19.4223 55.4307 19.1872 55.1508 19.0027 54.8378H18.6777V54.2749H19.175V54.8084C19.3966 55.075 19.6389 55.3234 19.8997 55.5513H20.2865V55.8589L20.5042 56.0095V55.5513H21.021V56.1175H20.6927C20.8011 56.1829 20.9094 56.244 21.0177 56.3007L21.19 56.3825V56.2909H21.7002V57.5247H21.6157V58.0811C21.6797 58.0993 21.7373 58.1352 21.7822 58.1846C21.827 58.2341 21.8573 58.2951 21.8696 58.3609C21.8819 58.4267 21.8757 58.4946 21.8518 58.5571C21.8278 58.6195 21.787 58.674 21.734 58.7145C21.681 58.7549 21.6179 58.7796 21.5517 58.7859C21.4855 58.7921 21.4189 58.7797 21.3593 58.7499C21.2998 58.7202 21.2496 58.6743 21.2146 58.6174C21.1795 58.5605 21.1608 58.4949 21.1607 58.428L21.1802 58.4378ZM24.1052 64.7509V61.6647H22.2137C22.0601 61.6529 21.9157 61.5865 21.8062 61.4774C21.6966 61.3683 21.6292 61.2236 21.6157 61.0691V60.3753C21.6417 59.9335 21.8302 59.7207 22.178 59.7829H24.6025C24.7868 59.9153 24.9381 60.0889 25.0445 60.2902C25.3938 60.3187 25.7449 60.3187 26.0942 60.2902L26.4452 59.9629L26.9392 59.9433C27.459 60.4413 28.0375 60.8733 28.6617 61.2295H27.8655C27.8374 61.354 27.7643 61.4636 27.6603 61.5368C27.5564 61.61 27.4291 61.6416 27.3032 61.6255V63.0196H26.9457L26.9685 61.6189C26.5005 61.56 26.247 61.3571 26.208 61.0102H24.7877C24.8358 60.8473 24.83 60.6732 24.7714 60.5138C24.7128 60.3545 24.6045 60.2186 24.4627 60.1265H22.269C22.0307 60.0895 21.9093 60.2149 21.905 60.5029V60.9971C21.9836 61.128 22.1016 61.2303 22.2418 61.2892C22.3821 61.348 22.5373 61.3604 22.685 61.3244C23.2821 61.3341 23.8789 61.2936 24.4692 61.2033C24.4985 63.1178 24.492 64.2469 24.492 64.2469L25.6425 64.2175V61.1476L26.065 61.0887V64.2175L26.91 64.2469V63.3535H27.3V64.2829H28.2425V63.8313L29.51 63.8607L29.4677 65.3007L28.2425 65.2745V64.7346L24.1052 64.7509ZM28.9802 68.8058C28.7751 68.8058 28.5784 68.7238 28.4333 68.5777C28.2882 68.4316 28.2067 68.2335 28.2067 68.0269C28.2067 67.8203 28.2882 67.6222 28.4333 67.4761C28.5784 67.3301 28.7751 67.248 28.9802 67.248C29.1673 67.2462 29.3482 67.3151 29.4872 67.4411L29.2565 67.68C29.1783 67.6169 29.0811 67.5825 28.9809 67.5824C28.8807 67.5822 28.7835 67.6163 28.7051 67.6791C28.6267 67.742 28.5718 67.8297 28.5494 67.9281C28.527 68.0264 28.5385 68.1295 28.5819 68.2204C28.6254 68.3113 28.6982 68.3847 28.7885 68.4285C28.8788 68.4722 28.9811 68.4838 29.0788 68.4613C29.1765 68.4389 29.2636 68.3836 29.326 68.3047C29.3884 68.2257 29.4224 68.1278 29.4222 68.0269C29.423 67.9562 29.4062 67.8865 29.3735 67.824L29.627 67.5982C29.7041 67.7159 29.748 67.8525 29.754 67.9934C29.76 68.1342 29.728 68.2741 29.6613 68.3981C29.5945 68.5221 29.4956 68.6255 29.3751 68.6973C29.2546 68.7691 29.1203 68.8066 28.9802 68.8058ZM33.5725 69.9382C33.8108 69.4756 33.6234 69.2673 33.0102 69.3131C33.0102 69.4015 32.9907 69.2869 32.9257 68.9858C33.7946 68.8527 34.1792 69.192 34.0795 70.0036L33.5725 69.9382ZM36.8225 69.2836L33.2475 65.8473C33.1861 65.8642 33.1226 65.8719 33.059 65.8702C32.9315 65.8727 32.806 65.8375 32.6982 65.7687L32.903 65.5004C32.9724 65.5351 33.0512 65.5462 33.1274 65.532C33.2037 65.5178 33.2732 65.4789 33.3257 65.4214C33.3781 65.3639 33.4105 65.2907 33.418 65.213C33.4256 65.1353 33.4078 65.0572 33.3674 64.9906C33.327 64.9239 33.2662 64.8723 33.1942 64.8435C33.1221 64.8146 33.0427 64.8102 32.9679 64.8308C32.8931 64.8514 32.827 64.8959 32.7795 64.9577C32.7321 65.0194 32.7058 65.095 32.7047 65.1731C32.7024 65.2545 32.7302 65.3338 32.7827 65.3956L32.565 65.6509C32.5026 65.5885 32.4534 65.5139 32.4205 65.4318C32.3875 65.3497 32.3714 65.2617 32.3732 65.1731C32.3668 65.0782 32.3797 64.983 32.4113 64.8933C32.4429 64.8037 32.4925 64.7215 32.557 64.652C32.6214 64.5825 32.6994 64.527 32.7861 64.4891C32.8727 64.4512 32.9662 64.4317 33.0606 64.4317C33.1551 64.4317 33.2485 64.4512 33.3352 64.4891C33.4218 64.527 33.4998 64.5825 33.5643 64.652C33.6287 64.7215 33.6783 64.8037 33.7099 64.8933C33.7415 64.983 33.7545 65.0782 33.748 65.1731C33.75 65.3084 33.7102 65.4411 33.6342 65.5527L37.1117 69.0022L36.8225 69.2836ZM37.3002 68.1644C37.1141 68.1644 36.9355 68.0899 36.8039 67.9573C36.6722 67.8247 36.5982 67.6449 36.5982 67.4575C36.5946 67.3102 36.6404 67.1661 36.7282 67.0484C36.1432 66.4156 34.567 64.8349 31.9995 62.3062C32.1728 62.3258 32.3494 62.3389 32.5292 62.3455L36.9297 66.8553C37.0399 66.7835 37.1691 66.747 37.3002 66.7505C37.4864 66.7505 37.665 66.825 37.7966 66.9576C37.9283 67.0902 38.0022 67.27 38.0022 67.4575C38.0022 67.6449 37.9283 67.8247 37.7966 67.9573C37.665 68.0899 37.4864 68.1644 37.3002 68.1644ZM38.532 66.1549L37.7747 66.1811L37.8007 64.2567H38.87C38.7813 64.8931 38.6554 65.5236 38.493 66.1451L38.532 66.1549ZM38.8927 42.6698H32.2692L30.3387 48.5869H27.859L34.1705 29.7818H37.063L43.4005 48.5869H40.8362L38.8927 42.6698ZM59.9267 58.4902C59.3528 58.2601 58.8789 57.8317 58.5901 57.2818C58.3013 56.7319 58.2163 56.0963 58.3505 55.4891C58.5975 53.3073 57.7167 52.4345 55.7082 52.8709C57.9789 55.356 57.4167 56.9978 54.0215 57.7964C54.8882 58.6691 55.9563 58.3298 57.226 56.7785C57.5313 57.7813 58.0605 58.7004 58.773 59.4655L57.8175 60.8236C57.9171 61.3017 57.9113 61.7959 57.8005 62.2715C57.6897 62.747 57.4766 63.1923 57.1763 63.5758C56.876 63.9594 56.4957 64.2719 56.0624 64.4914C55.629 64.7108 55.1531 64.8318 54.6682 64.8458C54.4169 65.1753 54.4353 65.0236 54.7235 64.3909C54.5198 63.012 53.8081 62.3335 52.5882 62.3553C52.1577 62.6469 51.6527 62.8072 51.1339 62.8171C50.6151 62.8269 50.1045 62.6859 49.6632 62.4109C48.3264 61.8393 47.5215 62.1415 47.2485 63.3175C46.2117 64.7194 44.6835 65.6708 42.9747 65.9782C43.8254 66.3523 44.7833 66.3973 45.6649 66.1044C46.5464 65.8115 47.2897 65.2014 47.7522 64.3909C47.1607 62.7807 48.0978 62.6869 50.5635 64.1095C52.936 63.2956 54.1352 63.8236 54.1612 65.6935C53.6356 66.5167 52.9234 67.2026 52.0833 67.6947C51.2431 68.1868 50.299 68.4712 49.3285 68.5244C48.6785 69.8705 46.5411 70.5884 42.9162 70.6778C42.3737 70.6494 41.8428 70.5084 41.3569 70.2638C40.871 70.0191 40.4405 69.676 40.0923 69.256C39.7442 68.836 39.486 68.3481 39.3338 67.823C39.1816 67.2978 39.1388 66.7466 39.208 66.204C39.5505 65.6171 39.7271 64.947 39.7185 64.2662C39.7099 63.5855 39.5165 62.9202 39.1592 62.3422H45.7697C48.0018 62.3425 50.1465 61.469 51.7506 59.9062C53.3547 58.3433 54.2926 56.2137 54.366 53.9673L54.444 53.8625L54.366 53.8429V47.6084C55.0157 47.3909 55.5943 46.9995 56.0397 46.476C56.7341 46.1172 57.5377 46.0365 58.2887 46.2502C59.3309 49.1018 58.6376 50.4229 56.2087 50.2135C57.1122 51.1756 57.9182 51.1189 58.6267 50.0433C59.5547 49.8082 60.528 49.8258 61.4469 50.0944C62.3658 50.363 63.1973 50.8728 63.856 51.5716C63.7118 52.9388 63.284 54.2602 62.6004 55.4504C61.9169 56.6405 60.9927 57.6728 59.8877 58.4804L59.9267 58.4902ZM64.1972 50.8451C63.6509 50.1099 62.8992 49.5556 62.0383 49.253C61.1774 48.9504 60.2464 48.9134 59.3645 49.1465C60.2875 48.5051 60.3622 47.5047 59.5887 46.1455C58.2519 45.6175 57.4643 45.0142 57.226 44.3356C57.6279 43.5981 57.8754 42.7855 57.9531 41.9479C58.0308 41.1103 57.9371 40.2655 57.6777 39.4658C58.2757 39.684 58.6506 39.5749 58.8022 39.1385C58.3472 38.5604 57.8218 38.6171 57.226 39.3087C57.5375 41.1797 57.1358 43.1002 56.1015 44.6858C55.6444 45.4227 55.0586 46.0703 54.3725 46.5971V34.8644C55.5729 34.6665 56.8027 34.947 57.8012 35.6465C57.4704 35.1642 57.007 34.7896 56.4678 34.5687C55.9285 34.3477 55.337 34.2901 54.7657 34.4029L55.0485 33.0447C54.8253 33.2935 54.6 33.5335 54.3725 33.7647V29.9291C54.7887 29.4748 55.1093 28.9405 55.315 28.3582L57.1155 28.4138C57.3452 28.4138 57.6821 28.9047 58.1262 29.8865C61.3372 27.0753 60.021 31.1105 61.5452 29.1829L61.4055 28.8C61.4987 28.8436 61.5907 28.8905 61.6817 28.9407L61.75 28.8687V28.8393C62.2137 28.8589 62.5636 29.3215 62.7997 30.2269C63.4031 31.8536 63.5581 33.6144 63.2482 35.3225C64.8212 36.6971 64.8212 37.9996 63.2482 39.2302L64.597 39.5116C64.8727 41.2174 64.7378 42.9649 64.2037 44.6073C64.7049 45.5692 64.9629 46.6407 64.955 47.727C64.947 48.8133 64.6734 49.8808 64.1582 50.8353L64.1972 50.8451Z" fill="#FFFDFD"/>
</svg>
