<svg width="16" height="16" viewBox="0 0 16 16" fill="none" xmlns="http://www.w3.org/2000/svg">
<path d="M12.998 5.32603L7.99995 10.198L3.00195 5.32603C2.91266 5.2388 2.79278 5.18996 2.66795 5.18996C2.54312 5.18996 2.42325 5.2388 2.33395 5.32603C2.29072 5.36839 2.25637 5.41896 2.23292 5.47477C2.20947 5.53057 2.19739 5.5905 2.19739 5.65103C2.19739 5.71156 2.20947 5.77149 2.23292 5.82729C2.25637 5.8831 2.29072 5.93367 2.33395 5.97603L7.65095 11.16C7.74433 11.251 7.86956 11.302 7.99995 11.302C8.13035 11.302 8.25558 11.251 8.34895 11.16L13.666 5.97703C13.7095 5.93463 13.7441 5.88394 13.7677 5.82795C13.7914 5.77196 13.8035 5.7118 13.8035 5.65103C13.8035 5.59026 13.7914 5.5301 13.7677 5.47411C13.7441 5.41812 13.7095 5.36743 13.666 5.32503C13.5767 5.2378 13.4568 5.18896 13.332 5.18896C13.2071 5.18896 13.0872 5.2378 12.998 5.32503V5.32603Z" fill="black"/>
</svg>
