<svg width="29" height="30" viewBox="0 0 29 30" fill="none" xmlns="http://www.w3.org/2000/svg">
<path opacity="0.987" fill-rule="evenodd" clip-rule="evenodd" d="M12.6634 0.129094C14.204 -0.0430312 15.1156 -0.0430312 16.771 0.129094C19.7012 0.562796 22.4176 1.91725 24.5273 3.99659C23.1017 5.34413 21.6948 6.71135 20.307 8.09784C17.6493 5.84534 14.6828 5.32543 11.4075 6.53809C9.00485 7.64309 7.33176 9.43376 6.38826 11.9101C4.84645 10.7622 3.32472 9.58764 1.82376 8.38684C1.71945 8.33194 1.60032 8.31183 1.48376 8.32947C3.86801 3.73238 7.59385 0.998219 12.6613 0.126969" fill="#F44336"/>
<path opacity="0.997" fill-rule="evenodd" clip-rule="evenodd" d="M1.47954 8.32953C1.59995 8.31111 1.71399 8.33024 1.82166 8.3869C3.32262 9.5877 4.84435 10.7623 6.38616 11.9102C6.14354 12.875 5.9906 13.8603 5.92929 14.8533C5.9817 15.8138 6.13399 16.7566 6.38616 17.6817L1.59429 21.496C-0.492464 17.1355 -0.530714 12.7467 1.47954 8.32953Z" fill="#FFC107"/>
<path opacity="0.999" fill-rule="evenodd" clip-rule="evenodd" d="M24.2999 26.1157C22.8078 24.7999 21.2458 23.5656 19.6206 22.4182C21.2498 21.2679 22.2386 19.6897 22.5871 17.6837H14.6035V12.1396C19.2077 12.1013 23.8097 12.1403 28.4096 12.2565C29.2823 16.9952 28.2743 21.2679 25.3858 25.0745C25.0423 25.4396 24.6785 25.7871 24.2999 26.1157Z" fill="#448AFF"/>
<path opacity="0.993" fill-rule="evenodd" clip-rule="evenodd" d="M6.38618 17.6837C8.12868 22.0145 11.3233 24.036 15.9699 23.7485C17.2743 23.5975 18.5249 23.1418 19.6207 22.4182C21.247 23.5686 22.8068 24.8011 24.2999 26.1157C21.9341 28.2417 18.9175 29.5031 15.7426 29.6942C15.0212 29.7519 14.2964 29.7519 13.5751 29.6942C8.16622 29.0567 4.17263 26.324 1.5943 21.496L6.38618 17.6837Z" fill="#43A047"/>
</svg>
