<svg width="373" height="27" viewBox="0 0 373 27" fill="none" xmlns="http://www.w3.org/2000/svg">
<path d="M172 12.4C172 10.16 172 9.04 172.436 8.184C172.819 7.43139 173.431 6.81949 174.184 6.436C175.04 6 176.16 6 178.4 6H183.6C185.84 6 186.96 6 187.816 6.436C188.569 6.81949 189.181 7.43139 189.564 8.184C190 9.04 190 10.16 190 12.4V17.6C190 19.84 190 20.96 189.564 21.816C189.181 22.5686 188.569 23.1805 187.816 23.564C186.96 24 185.84 24 183.6 24H178.4C176.16 24 175.04 24 174.184 23.564C173.431 23.1805 172.819 22.5686 172.436 21.816C172 20.96 172 19.84 172 17.6V12.4Z" stroke="black" stroke-width="1.5" stroke-linecap="round" stroke-linejoin="round"/>
<path d="M353 18C352.717 18 352.479 17.904 352.288 17.712C352.097 17.52 352.001 17.2827 352 17C351.999 16.7173 352.095 16.48 352.288 16.288C352.481 16.096 352.718 16 353 16H369C369.283 16 369.521 16.096 369.713 16.288C369.905 16.48 370.001 16.7173 370 17C369.999 17.2827 369.903 17.5203 369.712 17.713C369.521 17.9057 369.283 18.0013 369 18H353ZM353 13C352.717 13 352.479 12.904 352.288 12.712C352.097 12.52 352.001 12.2827 352 12C351.999 11.7173 352.095 11.48 352.288 11.288C352.481 11.096 352.718 11 353 11H369C369.283 11 369.521 11.096 369.713 11.288C369.905 11.48 370.001 11.7173 370 12C369.999 12.2827 369.903 12.5203 369.712 12.713C369.521 12.9057 369.283 13.0013 369 13H353ZM353 8C352.717 8 352.479 7.904 352.288 7.712C352.097 7.52 352.001 7.28267 352 7C351.999 6.71733 352.095 6.48 352.288 6.288C352.481 6.096 352.718 6 353 6H369C369.283 6 369.521 6.096 369.713 6.288C369.905 6.48 370.001 6.71733 370 7C369.999 7.28267 369.903 7.52033 369.712 7.713C369.521 7.90567 369.283 8.00133 369 8H353Z" fill="black"/>
<path d="M4 10.27C3.69692 10.4458 3.44535 10.6981 3.27047 11.0017C3.09559 11.3054 3.00354 11.6496 3.00354 12C3.00354 12.3504 3.09559 12.6946 3.27047 12.9982C3.44535 13.3018 3.69692 13.5542 4 13.73L18 21.73C18.3039 21.9054 18.6486 21.9978 18.9995 21.9979C19.3504 21.998 19.6951 21.9058 19.9991 21.7305C20.3031 21.5552 20.5556 21.303 20.7313 20.9993C20.907 20.6955 20.9996 20.3509 21 20V3.99998C20.9996 3.64908 20.907 3.30445 20.7313 3.00069C20.5556 2.69694 20.3031 2.44476 19.9991 2.26946C19.6951 2.09417 19.3504 2.00194 18.9995 2.00203C18.6486 2.00212 18.3039 2.09453 18 2.26998L4 10.27Z" stroke="black" stroke-width="2" stroke-linecap="round" stroke-linejoin="round"/>
</svg>
