<svg width="38" height="38" viewBox="0 0 38 38" fill="none" xmlns="http://www.w3.org/2000/svg">
<path d="M26.9958 32.11C25.4442 33.6142 23.75 33.3767 22.1192 32.6642C20.3933 31.9358 18.81 31.9042 16.9892 32.6642C14.7092 33.6458 13.5058 33.3608 12.1442 32.11C4.4175 24.1458 5.5575 12.0175 14.3292 11.5742C16.4667 11.685 17.955 12.7458 19.2058 12.8408C21.0742 12.4608 22.8633 11.3683 24.8583 11.5108C27.2492 11.7008 29.0542 12.6508 30.2417 14.3608C25.3017 17.3217 26.4733 23.8292 31.0017 25.65C30.0992 28.025 28.9275 30.3842 26.98 32.1258L26.9958 32.11ZM19.0475 11.4792C18.81 7.94833 21.6758 5.035 24.9692 4.75C25.4283 8.835 21.2642 11.875 19.0475 11.4792Z" fill="black"/>
</svg>
