<svg width="24" height="24" viewBox="0 0 24 24" fill="none" xmlns="http://www.w3.org/2000/svg">
<path d="M20.638 14.136L20.539 13.141L20.506 13.144L20.474 13.15L20.638 14.136ZM20.638 14.136L20.738 15.131L20.771 15.128L20.803 15.123L20.638 14.136ZM16.598 19.618L17.231 18.844L17.223 18.838L16.598 19.618ZM16.598 19.618L15.965 20.392L15.973 20.399L16.598 19.618ZM7.40199 19.618L6.76899 18.845L6.75299 18.858L6.73799 18.871L7.40199 19.618ZM7.40199 19.618L8.03499 20.393L8.05099 20.38L8.06599 20.366L7.40199 19.618ZM3.36099 9.86399V8.86399H3.31099L3.26199 8.86899L3.36099 9.86399ZM3.36099 9.86399V10.864H3.41099L3.46099 10.859L3.36099 9.86399ZM15.131 3.26099C15.1145 3.06864 15.0908 2.87688 15.062 2.68599C15.0311 2.47584 14.967 2.27196 14.872 2.08199L13.095 2.99999C13.072 2.95499 13.077 2.93899 13.09 3.01799C13.105 3.10699 13.118 3.23099 13.141 3.46099L15.131 3.26099ZM15.226 4.21099C15.289 4.29299 15.268 4.32999 15.233 4.13499C15.2 3.94899 15.174 3.68799 15.131 3.26099L13.14 3.45999C13.18 3.85399 13.214 4.20799 13.265 4.48999C13.314 4.75999 13.4 5.11499 13.635 5.42299L15.226 4.21099ZM15.226 4.21099L13.635 5.42299C13.849 5.70384 14.1335 5.92302 14.4597 6.05826C14.7859 6.19351 15.142 6.23999 15.492 6.19299L15.226 4.21099ZM15.964 3.60599C15.7399 3.7954 15.5094 3.97717 15.273 4.15099C15.11 4.26399 15.123 4.22399 15.226 4.21099L15.492 6.19299C15.876 6.14099 16.188 5.95099 16.414 5.79299C16.649 5.63099 16.924 5.40499 17.23 5.15399L15.964 3.60599ZM16.98 2.95599C16.7787 3.02295 16.5893 3.12152 16.419 3.24799C16.279 3.34799 16.122 3.47699 15.964 3.60599L17.23 5.15399C17.409 5.00799 17.506 4.92899 17.58 4.87699C17.645 4.82999 17.636 4.84599 17.589 4.86099L16.98 2.95599ZM18.384 3.02599C17.9399 2.83353 17.441 2.80866 16.98 2.95599L17.589 4.86099L18.384 3.02599ZM19.33 3.77399C19.1953 3.63555 19.0563 3.50148 18.913 3.37199C18.7558 3.22926 18.5769 3.11246 18.383 3.02599L17.589 4.86099C17.543 4.84099 17.536 4.82499 17.596 4.87799C17.664 4.93799 17.753 5.02499 17.916 5.18799L19.33 3.77399ZM20.224 4.66799L19.33 3.77399L17.916 5.18799L18.81 6.08199L20.224 4.66799ZM20.972 5.61399C20.8855 5.42008 20.7687 5.24117 20.626 5.08399C20.4965 4.94105 20.3624 4.80231 20.224 4.66799L18.81 6.08299C18.973 6.24599 19.06 6.33499 19.12 6.40299C19.173 6.46299 19.157 6.45599 19.137 6.40999L20.972 5.61399ZM21.042 7.01799C21.1893 6.55694 21.1644 6.0581 20.972 5.61399L19.137 6.40999L21.042 7.01799ZM20.392 8.03399C20.5162 7.8862 20.6356 7.73446 20.75 7.57899C20.856 7.43099 20.97 7.24699 21.042 7.01799L19.137 6.40999C19.152 6.36299 19.167 6.35299 19.121 6.41899C19.069 6.49199 18.991 6.58899 18.844 6.76799L20.392 8.03399ZM19.787 8.77299C19.774 8.87599 19.734 8.88799 19.847 8.72499C19.954 8.56999 20.12 8.36599 20.392 8.03399L18.844 6.76799C18.594 7.07399 18.367 7.34899 18.204 7.58399C18.047 7.80999 17.857 8.12199 17.805 8.50599L19.787 8.77299ZM19.787 8.77299L17.805 8.50599C17.758 8.85594 17.8045 9.2121 17.9397 9.53827C18.075 9.86443 18.2941 10.149 18.575 10.363L19.787 8.77299ZM20.737 8.86799C20.4446 8.84353 20.1531 8.80918 19.863 8.76499C19.668 8.72999 19.705 8.70999 19.787 8.77299L18.575 10.363C18.883 10.598 19.237 10.684 19.509 10.733C19.79 10.783 20.144 10.818 20.538 10.858L20.737 8.86799ZM21.916 9.12599C21.726 9.03099 21.5221 8.96685 21.312 8.93599C21.1211 8.90716 20.9293 8.88448 20.737 8.86799L20.538 10.858C20.686 10.871 20.8338 10.8877 20.981 10.908C21.061 10.922 21.044 10.927 20.999 10.904L21.916 9.12599ZM22.859 10.169C22.6813 9.71865 22.3462 9.34806 21.916 9.12599L21 10.906L22.859 10.169ZM22.999 11.367C22.999 11.163 22.999 10.96 22.988 10.788C22.9779 10.5757 22.934 10.3664 22.858 10.168L21 10.906C20.982 10.859 20.988 10.843 20.994 10.923C21 11.013 21 11.138 21 11.369L22.999 11.367ZM22.999 12.631V11.367H20.999V12.631H22.999ZM22.859 13.829C22.947 13.606 22.976 13.392 22.988 13.209C22.999 13.038 22.999 12.835 22.999 12.631H20.999C20.999 12.862 20.999 12.987 20.993 13.077C20.987 13.157 20.981 13.141 20.999 13.094L22.859 13.829ZM21.916 14.872C22.3462 14.6499 22.6813 14.2793 22.859 13.829L21 13.095L21.916 14.872ZM20.737 15.13C20.941 15.11 21.142 15.09 21.312 15.062C21.492 15.032 21.702 14.982 21.916 14.872L21 13.095C21.044 13.072 21.061 13.077 20.982 13.09C20.8348 13.1111 20.6871 13.1281 20.539 13.141L20.737 15.13ZM19.788 15.225C19.705 15.288 19.668 15.268 19.863 15.233C20.049 15.2 20.31 15.173 20.737 15.13L20.538 13.14C20.145 13.18 19.79 13.214 19.509 13.265C19.238 13.314 18.883 13.4 18.575 13.635L19.788 15.225ZM19.788 15.225L18.575 13.635C18.2941 13.849 18.075 14.1335 17.9397 14.4597C17.8045 14.7859 17.758 15.142 17.805 15.492L19.788 15.225ZM20.392 15.963C20.2026 15.7392 20.0208 15.5091 19.847 15.273C19.734 15.11 19.775 15.122 19.788 15.225L17.805 15.492C17.857 15.876 18.047 16.188 18.205 16.414C18.368 16.649 18.594 16.924 18.844 17.23L20.392 15.963ZM21.042 16.979C20.9749 16.778 20.8764 16.589 20.75 16.419C20.65 16.278 20.521 16.122 20.392 15.963L18.844 17.23C18.99 17.409 19.069 17.505 19.121 17.579C19.168 17.644 19.153 17.636 19.137 17.589L21.042 16.979ZM20.972 18.384C21.1647 17.9396 21.1896 17.4403 21.042 16.979L19.137 17.589L20.972 18.384ZM20.224 19.33C20.369 19.185 20.512 19.043 20.626 18.913C20.746 18.775 20.876 18.604 20.972 18.383L19.137 17.588C19.157 17.542 19.173 17.536 19.12 17.596C19.06 17.664 18.973 17.752 18.81 17.916L20.224 19.33ZM19.33 20.223L20.224 19.33L18.81 17.916L17.916 18.809L19.33 20.223ZM18.384 20.972C18.578 20.8852 18.7569 20.7681 18.914 20.625C19.043 20.512 19.186 20.368 19.33 20.223L17.916 18.809C17.8122 18.9153 17.7055 19.0186 17.596 19.119C17.536 19.173 17.543 19.157 17.589 19.137L18.384 20.972ZM16.98 21.042C17.441 21.1893 17.9399 21.1644 18.384 20.972L17.589 19.137L16.98 21.042ZM15.964 20.392C16.122 20.521 16.278 20.65 16.419 20.75C16.567 20.855 16.751 20.969 16.98 21.042L17.589 19.137C17.636 19.152 17.645 19.167 17.579 19.121C17.4601 19.0319 17.3437 18.9395 17.23 18.844L15.964 20.392ZM15.226 19.788C15.123 19.773 15.11 19.733 15.273 19.846C15.428 19.954 15.631 20.119 15.963 20.391L17.23 18.844C16.924 18.593 16.649 18.367 16.414 18.204C16.188 18.046 15.876 17.857 15.492 17.805L15.226 19.788ZM15.226 19.788L15.492 17.805C15.142 17.758 14.7859 17.8045 14.4597 17.9397C14.1335 18.075 13.849 18.2941 13.635 18.575L15.226 19.788ZM15.13 20.737C15.173 20.31 15.2 20.048 15.233 19.863C15.268 19.668 15.288 19.704 15.225 19.787L13.635 18.574C13.4 18.882 13.314 19.237 13.265 19.508C13.215 19.79 13.181 20.144 13.141 20.538L15.13 20.737ZM14.871 21.916C14.981 21.702 15.031 21.492 15.061 21.312C15.091 21.142 15.109 20.941 15.13 20.737L13.141 20.538C13.1278 20.6864 13.1105 20.8335 13.089 20.981C13.076 21.061 13.071 21.044 13.094 20.999L14.871 21.916ZM13.83 22.859C14.2796 22.6809 14.6494 22.3458 14.871 21.916L13.095 21L13.83 22.859ZM12.63 22.999C12.835 22.999 13.038 22.999 13.21 22.988C13.392 22.976 13.606 22.949 13.83 22.859L13.095 21C13.142 20.982 13.158 20.988 13.078 20.994C12.9294 21.0001 12.7807 21.0021 12.632 21L12.63 22.999ZM11.367 22.999H12.63L12.631 20.999H11.367V22.999ZM10.169 22.859C10.392 22.947 10.606 22.976 10.789 22.988C10.96 22.999 11.163 22.999 11.367 22.999V20.999C11.136 20.999 11.011 20.999 10.921 20.993C10.841 20.987 10.857 20.981 10.904 20.999L10.169 22.859ZM9.12599 21.916C9.34806 22.3462 9.71865 22.6813 10.169 22.859L10.904 20.999L9.12599 21.916ZM8.86799 20.737C8.88799 20.941 8.90799 21.142 8.93599 21.312C8.96599 21.492 9.01599 21.702 9.12599 21.916L10.906 21C10.929 21.044 10.924 21.061 10.911 20.982C10.8899 20.8348 10.8729 20.6871 10.86 20.539L8.86799 20.737ZM8.77299 19.787C8.70999 19.705 8.72999 19.667 8.76499 19.863C8.79799 20.048 8.82499 20.31 8.86799 20.737L10.858 20.538C10.818 20.144 10.784 19.79 10.733 19.508C10.684 19.238 10.598 18.883 10.363 18.575L8.77299 19.787ZM8.77299 19.787L10.363 18.575C10.149 18.2941 9.86443 18.075 9.53827 17.9397C9.2121 17.8045 8.85594 17.758 8.50599 17.805L8.77299 19.787ZM8.03399 20.392C8.36699 20.12 8.56999 19.954 8.72499 19.847C8.88799 19.734 8.87599 19.774 8.77299 19.787L8.50599 17.805C8.12199 17.857 7.80999 18.047 7.58399 18.205C7.34899 18.367 7.07399 18.593 6.76799 18.844L8.03399 20.392ZM7.01799 21.042C7.21929 20.975 7.40866 20.8765 7.57899 20.75C7.71899 20.65 7.87599 20.521 8.03399 20.392L6.76899 18.845C6.65492 18.9406 6.53921 19.0329 6.41999 19.122C6.35499 19.169 6.36399 19.154 6.41099 19.138L7.01799 21.042ZM5.61399 20.972C6.0581 21.1644 6.55694 21.1893 7.01799 21.042L6.40899 19.137L5.61399 20.972ZM4.66699 20.224C4.81199 20.369 4.95499 20.512 5.08499 20.626C5.22199 20.746 5.39299 20.877 5.61499 20.973L6.40899 19.137C6.45499 19.157 6.46199 19.173 6.40199 19.12C6.29247 19.0196 6.18576 18.9163 6.08199 18.81L4.66699 20.224ZM3.77399 19.33L4.66799 20.224L6.08199 18.81L5.18799 17.916L3.77399 19.33ZM3.02599 18.384C3.12099 18.604 3.25199 18.776 3.37199 18.914C3.48599 19.043 3.62899 19.186 3.77399 19.33L5.18799 17.916C5.08171 17.8122 4.97833 17.7055 4.87799 17.596C4.82499 17.536 4.84099 17.543 4.86099 17.589L3.02599 18.384ZM2.95599 16.98C2.80866 17.441 2.83353 17.9399 3.02599 18.384L4.86099 17.589L2.95599 16.98ZM3.60599 15.964C3.48181 16.1118 3.36241 16.2635 3.24799 16.419C3.12152 16.5893 3.02295 16.7787 2.95599 16.98L4.86099 17.589C4.84499 17.636 4.83099 17.645 4.87699 17.579C4.92899 17.506 5.00699 17.409 5.15399 17.23L3.60599 15.964ZM4.20999 15.225C4.22399 15.122 4.26399 15.11 4.15099 15.273C4.04399 15.428 3.87799 15.632 3.60599 15.964L5.15399 17.23C5.40399 16.924 5.63099 16.649 5.79399 16.414C5.95099 16.188 6.14099 15.876 6.19299 15.492L4.20999 15.225ZM4.20999 15.225L6.19299 15.492C6.23999 15.142 6.19351 14.7859 6.05826 14.4597C5.92302 14.1335 5.70384 13.849 5.42299 13.635L4.20999 15.225ZM3.25999 15.13C3.68799 15.173 3.94999 15.2 4.13499 15.233C4.32999 15.268 4.29299 15.288 4.20999 15.225L5.42299 13.635C5.11499 13.4 4.76099 13.314 4.48899 13.265C4.20799 13.215 3.85399 13.18 3.45899 13.14L3.25999 15.13ZM2.08199 14.872C2.29599 14.982 2.50599 15.032 2.68599 15.062C2.85599 15.09 3.05699 15.111 3.26099 15.131L3.45899 13.14C3.31089 13.1274 3.16416 13.1108 3.01699 13.09C2.93699 13.076 2.95399 13.071 2.99899 13.094L2.08199 14.872ZM1.13999 13.83C1.31772 14.2803 1.65278 14.6509 2.08299 14.873L2.99999 13.095L1.13999 13.83ZM0.99999 12.632C0.99999 12.836 0.99999 13.039 1.01099 13.211C1.02299 13.393 1.05099 13.607 1.14099 13.831L2.99999 13.094C3.01799 13.141 3.01199 13.157 3.00699 13.077C3.00053 12.9287 2.9982 12.7804 2.99999 12.632H0.99999ZM0.99999 11.368V12.632H2.99999V11.368H0.99999ZM1.13999 10.169C1.06434 10.3675 1.02079 10.5768 1.01099 10.789C0.99899 10.961 0.99999 11.164 0.99999 11.369H2.99999C2.99999 11.137 2.99999 11.012 3.00699 10.922C3.01199 10.842 3.01799 10.858 2.99999 10.905L1.13999 10.169ZM2.08299 9.12799C1.65314 9.34957 1.31813 9.71939 1.13999 10.169L2.99999 10.905L2.08299 9.12799ZM3.26199 8.86799C3.05799 8.88899 2.85699 8.90799 2.68699 8.93799C2.50699 8.96799 2.29699 9.01799 2.08299 9.12799L2.99999 10.905C2.95499 10.928 2.93899 10.923 3.01799 10.91C3.16515 10.8889 3.31288 10.8719 3.46099 10.859L3.26199 8.86799ZM4.21199 8.77399C4.29499 8.71099 4.33199 8.73099 4.13599 8.76599C3.95099 8.79899 3.68899 8.82599 3.26199 8.86899L3.46099 10.859C3.85399 10.819 4.20899 10.785 4.49099 10.734C4.76199 10.685 5.11699 10.599 5.42499 10.364L4.21199 8.77399ZM4.21199 8.77399L5.42499 10.364C5.70566 10.1499 5.92464 9.86527 6.05971 9.53911C6.19477 9.21295 6.2411 8.85685 6.19399 8.50699L4.21199 8.77399ZM3.60699 8.03499C3.87899 8.36699 4.04499 8.57099 4.15299 8.72599C4.26599 8.88899 4.22599 8.87699 4.21199 8.77399L6.19399 8.50699C6.14199 8.12299 5.95299 7.81199 5.79499 7.58499C5.63199 7.34999 5.40499 7.07499 5.15499 6.76899L3.60699 8.03499ZM2.95699 7.01799C3.02999 7.24799 3.14299 7.43099 3.24899 7.57999C3.34899 7.71999 3.47799 7.87699 3.60699 8.03499L5.15499 6.76899C5.05942 6.65492 4.96705 6.53921 4.87799 6.41999C4.83099 6.35499 4.84699 6.36299 4.86199 6.40999L2.95699 7.01799ZM3.02699 5.61499C2.83478 6.05881 2.80991 6.55724 2.95699 7.01799L4.86199 6.40999L3.02699 5.61499ZM3.77499 4.66799C3.62999 4.81299 3.48699 4.95499 3.37299 5.08499C3.23026 5.24217 3.11346 5.42108 3.02699 5.61499L4.86199 6.40999C4.84199 6.45599 4.82599 6.46299 4.87899 6.40199C4.93899 6.33399 5.02599 6.24599 5.18899 6.08199L3.77499 4.66799ZM4.66899 3.77499L3.77499 4.66799L5.18899 6.08199L6.08399 5.18899L4.66899 3.77499ZM5.61499 3.02599C5.42101 3.11277 5.2421 3.2299 5.08499 3.37299C4.94205 3.5025 4.80331 3.63657 4.66899 3.77499L6.08399 5.18899C6.24699 5.02499 6.33499 4.93799 6.40299 4.87899C6.46299 4.82499 6.45599 4.84099 6.40999 4.86099L5.61499 3.02599ZM7.01899 2.95599C6.55794 2.80866 6.0591 2.83353 5.61499 3.02599L6.40999 4.86099L7.01899 2.95599ZM8.03399 3.60599C7.87599 3.47699 7.72099 3.34899 7.57999 3.24899C7.40973 3.12217 7.22036 3.02326 7.01899 2.95599L6.40999 4.86099C6.36299 4.84599 6.35399 4.83099 6.41999 4.87699C6.49299 4.92999 6.58999 5.00799 6.76899 5.15499L8.03399 3.60599ZM8.77399 4.21099C8.87699 4.22499 8.88899 4.26499 8.72599 4.15199C8.48991 3.97816 8.25978 3.79639 8.03599 3.60699L6.76899 5.15499C7.07499 5.40499 7.34899 5.63099 7.58399 5.79499C7.80999 5.95199 8.12199 6.14099 8.50599 6.19299L8.77399 4.21099ZM8.77399 4.21099L8.50699 6.19299C8.85694 6.23999 9.2131 6.19351 9.53926 6.05826C9.86543 5.92302 10.15 5.70384 10.364 5.42299L8.77399 4.21099ZM8.86899 3.26099C8.82599 3.68899 8.79899 3.95099 8.76599 4.13599C8.73099 4.33099 8.71099 4.29399 8.77399 4.21099L10.364 5.42299C10.599 5.11499 10.685 4.76099 10.734 4.48999C10.784 4.20899 10.82 3.85399 10.859 3.45999L8.86899 3.26099ZM9.12699 2.08299C9.03199 2.27296 8.96785 2.47684 8.93699 2.68699C8.90899 2.85699 8.88899 3.05799 8.86899 3.26199L10.859 3.45999C10.872 3.31193 10.8887 3.16522 10.909 3.01799C10.923 2.93799 10.928 2.95599 10.905 2.99999L9.12699 2.08299ZM10.17 1.13999C9.71965 1.31772 9.34906 1.65278 9.12699 2.08299L10.905 2.99999L10.17 1.13999ZM11.368 0.99999C11.164 0.99999 10.961 0.99999 10.789 1.01099C10.5768 1.02079 10.3675 1.06434 10.169 1.13999L10.906 2.99999C10.859 3.01799 10.843 3.01199 10.923 3.00699C11.013 3.00099 11.138 2.99999 11.369 2.99999L11.368 0.99999ZM12.632 0.99999H11.368V2.99999H12.632V0.99999ZM13.83 1.13999C13.6315 1.06434 13.4222 1.02079 13.21 1.01099C13.04 0.99899 12.837 0.99999 12.633 0.99999V2.99999C12.864 2.99999 12.989 2.99999 13.079 3.00699C13.159 3.01199 13.142 3.01799 13.095 2.99999L13.83 1.13999ZM14.873 2.08299C14.6509 1.65278 14.2803 1.31772 13.83 1.13999L13.095 2.99999L14.873 2.08299ZM15 12C15 12.7956 14.6839 13.5587 14.1213 14.1213C13.5587 14.6839 12.7956 15 12 15V17C13.3261 17 14.5978 16.4732 15.5355 15.5355C16.4732 14.5978 17 13.3261 17 12H15ZM12 8.99999C12.7956 8.99999 13.5587 9.31606 14.1213 9.87867C14.6839 10.4413 15 11.2043 15 12H17C17 10.6739 16.4732 9.40214 15.5355 8.46446C14.5978 7.52677 13.3261 6.99999 12 6.99999V8.99999ZM8.99999 12C8.99999 11.2043 9.31606 10.4413 9.87867 9.87867C10.4413 9.31606 11.2043 8.99999 12 8.99999V6.99999C10.6739 6.99999 9.40214 7.52677 8.46446 8.46446C7.52677 9.40214 6.99999 10.6739 6.99999 12H8.99999ZM12 15C11.2043 15 10.4413 14.6839 9.87867 14.1213C9.31606 13.5587 8.99999 12.7956 8.99999 12H6.99999C6.99999 13.3261 7.52677 14.5978 8.46446 15.5355C9.40214 16.4732 10.6739 17 12 17V15Z" fill="black"/>
</svg>
