<svg width="37" height="37" viewBox="0 0 37 37" fill="none" xmlns="http://www.w3.org/2000/svg">
<path d="M31.8169 21.793L31.6643 20.259L31.6134 20.2637L31.5641 20.2729L31.8169 21.793ZM31.8169 21.793L31.9711 23.3269L32.022 23.3223L32.0713 23.3146L31.8169 21.793ZM25.5886 30.2444L26.5645 29.0512L26.5521 29.0419L25.5886 30.2444ZM25.5886 30.2444L24.6127 31.4377L24.625 31.4485L25.5886 30.2444ZM11.4114 30.2444L10.4355 29.0527L10.4109 29.0727L10.3877 29.0928L11.4114 30.2444ZM11.4114 30.2444L12.3873 31.4392L12.412 31.4192L12.4351 31.3976L11.4114 30.2444ZM5.18154 15.207V13.6653H5.10446L5.02892 13.673L5.18154 15.207ZM5.18154 15.207V16.7487H5.25862L5.33571 16.7409L5.18154 15.207ZM23.327 5.02737C23.3015 4.73083 23.265 4.43519 23.2206 4.14091C23.173 3.81693 23.0741 3.50261 22.9277 3.20974L20.1881 4.62499C20.1527 4.55562 20.1604 4.53095 20.1804 4.65274C20.2035 4.78995 20.2236 4.98112 20.259 5.3357L23.327 5.02737ZM23.4734 6.49195C23.5705 6.61837 23.5382 6.67541 23.4842 6.37478C23.4333 6.08803 23.3932 5.68566 23.327 5.02737L20.2575 5.33416C20.3192 5.94157 20.3716 6.48732 20.4502 6.92207C20.5257 7.33832 20.6583 7.88562 21.0206 8.36045L23.4734 6.49195ZM23.4734 6.49195L21.0206 8.36045C21.3506 8.79342 21.7892 9.13133 22.2921 9.33983C22.7949 9.54833 23.344 9.61999 23.8835 9.54753L23.4734 6.49195ZM24.6112 5.55924C24.2657 5.85125 23.9104 6.13148 23.5459 6.39945C23.2946 6.57366 23.3146 6.51199 23.4734 6.49195L23.8835 9.54753C24.4755 9.46737 24.9565 9.17445 25.3049 8.93087C25.6672 8.68112 26.0912 8.3327 26.5629 7.94574L24.6112 5.55924ZM26.1775 4.55716C25.8672 4.66039 25.5752 4.81235 25.3126 5.00732C25.0968 5.16149 24.8547 5.36037 24.6112 5.55924L26.5629 7.94574C26.8389 7.72066 26.9884 7.59887 27.1025 7.5187C27.2027 7.44624 27.1888 7.47091 27.1164 7.49403L26.1775 4.55716ZM28.342 4.66507C27.6573 4.36837 26.8883 4.33003 26.1775 4.55716L27.1164 7.49403L28.342 4.66507ZM29.8004 5.81824C29.5928 5.60481 29.3784 5.39812 29.1575 5.19849C28.9152 4.97844 28.6394 4.79838 28.3405 4.66507L27.1164 7.49403C27.0455 7.4632 27.0347 7.43853 27.1272 7.52024C27.232 7.61274 27.3692 7.74687 27.6205 7.99816L29.8004 5.81824ZM31.1787 7.19649L29.8004 5.81824L27.6205 7.99816L28.9987 9.37641L31.1787 7.19649ZM32.3318 8.65491C32.1985 8.35596 32.0185 8.08015 31.7984 7.83782C31.5988 7.61746 31.3921 7.40357 31.1787 7.19649L28.9987 9.37795C29.25 9.62924 29.3842 9.76645 29.4767 9.87128C29.5584 9.96378 29.5337 9.95299 29.5029 9.88207L32.3318 8.65491ZM32.4398 10.8194C32.6669 10.1086 32.6285 9.33958 32.3318 8.65491L29.5029 9.88207L32.4398 10.8194ZM31.4377 12.3857C31.6291 12.1579 31.8132 11.924 31.9896 11.6843C32.153 11.4561 32.3288 11.1724 32.4398 10.8194L29.5029 9.88207C29.526 9.80962 29.5491 9.7942 29.4782 9.89595C29.398 10.0085 29.2778 10.158 29.0512 10.434L31.4377 12.3857ZM30.505 13.525C30.4849 13.6838 30.4233 13.7023 30.5975 13.451C30.7624 13.2121 31.0183 12.8976 31.4377 12.3857L29.0512 10.434C28.6658 10.9057 28.3158 11.3297 28.0645 11.692C27.8225 12.0404 27.5295 12.5214 27.4494 13.1134L30.505 13.525ZM30.505 13.525L27.4494 13.1134C27.3769 13.6529 27.4486 14.202 27.6571 14.7048C27.8656 15.2077 28.2035 15.6463 28.6365 15.9763L30.505 13.525ZM31.9695 13.6715C31.5187 13.6338 31.0693 13.5808 30.6221 13.5127C30.3215 13.4587 30.3785 13.4279 30.505 13.525L28.6365 15.9763C29.1113 16.3386 29.657 16.4712 30.0764 16.5467C30.5096 16.6238 31.0553 16.6777 31.6628 16.7394L31.9695 13.6715ZM33.7872 14.0692C33.4943 13.9228 33.18 13.8239 32.856 13.7763C32.5617 13.7319 32.2661 13.6969 31.9695 13.6715L31.6628 16.7394C31.891 16.7595 32.1187 16.7852 32.3457 16.8165C32.469 16.8381 32.4428 16.8458 32.3735 16.8103L33.7872 14.0692ZM35.241 15.6772C34.967 14.9829 34.4504 14.4116 33.7872 14.0692L32.375 16.8134L35.241 15.6772ZM35.4568 17.5241C35.4568 17.2096 35.4568 16.8967 35.4398 16.6315C35.4242 16.3043 35.3566 15.9816 35.2394 15.6757L32.375 16.8134C32.3473 16.7409 32.3565 16.7163 32.3658 16.8396C32.375 16.9784 32.375 17.1711 32.375 17.5272L35.4568 17.5241ZM35.4568 19.4728V17.5241H32.3735V19.4728H35.4568ZM35.241 21.3197C35.3766 20.9759 35.4213 20.646 35.4398 20.3639C35.4568 20.1002 35.4568 19.7873 35.4568 19.4728H32.3735C32.3735 19.8289 32.3735 20.0216 32.3642 20.1604C32.355 20.2837 32.3457 20.259 32.3735 20.1866L35.241 21.3197ZM33.7872 22.9277C34.4504 22.5853 34.967 22.014 35.241 21.3197L32.375 20.1881L33.7872 22.9277ZM31.9695 23.3254C32.284 23.2946 32.5939 23.2637 32.856 23.2206C33.1335 23.1743 33.4573 23.0972 33.7872 22.9277L32.375 20.1881C32.4428 20.1527 32.469 20.1604 32.3473 20.1804C32.1204 20.213 31.8926 20.2392 31.6643 20.259L31.9695 23.3254ZM30.5065 23.4719C30.3785 23.569 30.3215 23.5382 30.6221 23.4842C30.9089 23.4333 31.3113 23.3917 31.9695 23.3254L31.6628 20.2575C31.0569 20.3192 30.5096 20.3716 30.0764 20.4502C29.6586 20.5257 29.1113 20.6583 28.6365 21.0206L30.5065 23.4719ZM30.5065 23.4719L28.6365 21.0206C28.2035 21.3505 27.8656 21.7892 27.6571 22.2921C27.4486 22.7949 27.3769 23.344 27.4494 23.8835L30.5065 23.4719ZM31.4377 24.6096C31.1457 24.2646 30.8655 23.9098 30.5975 23.5459C30.4233 23.2946 30.4865 23.3131 30.5065 23.4719L27.4494 23.8835C27.5295 24.4755 27.8225 24.9565 28.066 25.3049C28.3173 25.6672 28.6658 26.0912 29.0512 26.5629L31.4377 24.6096ZM32.4398 26.1759C32.3364 25.8661 32.1844 25.5747 31.9896 25.3126C31.8354 25.0952 31.6365 24.8547 31.4377 24.6096L29.0512 26.5629C29.2763 26.8389 29.398 26.9869 29.4782 27.101C29.5507 27.2012 29.5275 27.1888 29.5029 27.1164L32.4398 26.1759ZM32.3318 28.342C32.6289 27.6569 32.6673 26.8872 32.4398 26.1759L29.5029 27.1164L32.3318 28.342ZM31.1787 29.8004C31.4022 29.5769 31.6227 29.358 31.7984 29.1575C31.9834 28.9448 32.1838 28.6812 32.3318 28.3405L29.5029 27.1148C29.5337 27.0439 29.5584 27.0347 29.4767 27.1272C29.3842 27.232 29.25 27.3677 28.9987 27.6205L31.1787 29.8004ZM29.8004 31.1771L31.1787 29.8004L28.9987 27.6205L27.6205 28.9972L29.8004 31.1771ZM28.342 32.3318C28.6411 32.198 28.9169 32.0175 29.1591 31.7969C29.358 31.6227 29.5784 31.4007 29.8004 31.1771L27.6205 28.9972C27.4605 29.1611 27.296 29.3204 27.1272 29.4751C27.0347 29.5584 27.0455 29.5337 27.1164 29.5029L28.342 32.3318ZM26.1775 32.4397C26.8883 32.6669 27.6573 32.6285 28.342 32.3318L27.1164 29.5029L26.1775 32.4397ZM24.6112 31.4377C24.8547 31.6365 25.0952 31.8354 25.3126 31.9896C25.5408 32.1515 25.8245 32.3272 26.1775 32.4397L27.1164 29.5029C27.1888 29.526 27.2027 29.5491 27.101 29.4782C26.9177 29.3409 26.7383 29.1985 26.5629 29.0512L24.6112 31.4377ZM23.4734 30.5065C23.3146 30.4834 23.2946 30.4217 23.5459 30.5959C23.7848 30.7624 24.0978 31.0168 24.6096 31.4361L26.5629 29.0512C26.0912 28.6642 25.6672 28.3158 25.3049 28.0645C24.9565 27.8209 24.4755 27.5295 23.8835 27.4494L23.4734 30.5065ZM23.4734 30.5065L23.8835 27.4494C23.344 27.3769 22.7949 27.4486 22.2921 27.6571C21.7892 27.8656 21.3506 28.2035 21.0206 28.6365L23.4734 30.5065ZM23.3254 31.9695C23.3917 31.3112 23.4333 30.9073 23.4842 30.6221C23.5382 30.3215 23.569 30.377 23.4719 30.505L21.0206 28.6349C20.6583 29.1097 20.5257 29.657 20.4502 30.0748C20.3731 30.5096 20.3207 31.0553 20.259 31.6627L23.3254 31.9695ZM22.9261 33.7872C23.0957 33.4572 23.1728 33.1335 23.219 32.856C23.2653 32.5939 23.293 32.284 23.3254 31.9695L20.259 31.6627C20.2387 31.8916 20.212 32.1183 20.1789 32.3457C20.1588 32.469 20.1511 32.4428 20.1866 32.3735L22.9261 33.7872ZM21.3212 35.241C22.0144 34.9663 22.5845 34.4499 22.9261 33.7872L20.1881 32.375L21.3212 35.241ZM19.4712 35.4568C19.7873 35.4568 20.1002 35.4568 20.3654 35.4398C20.646 35.4213 20.9759 35.3797 21.3212 35.241L20.1881 32.375C20.2606 32.3472 20.2852 32.3565 20.1619 32.3657C19.9329 32.3752 19.7036 32.3783 19.4743 32.375L19.4712 35.4568ZM17.5241 35.4568H19.4712L19.4728 32.3735H17.5241V35.4568ZM15.6772 35.241C16.021 35.3766 16.3509 35.4213 16.633 35.4398C16.8967 35.4568 17.2096 35.4568 17.5241 35.4568V32.3735C17.168 32.3735 16.9753 32.3735 16.8365 32.3642C16.7132 32.355 16.7379 32.3457 16.8103 32.3735L15.6772 35.241ZM14.0692 33.7872C14.4116 34.4504 14.9829 34.9669 15.6772 35.241L16.8103 32.3735L14.0692 33.7872ZM13.6715 31.9695C13.7023 32.284 13.7332 32.5939 13.7763 32.856C13.8226 33.1335 13.8997 33.4572 14.0692 33.7872L16.8134 32.375C16.8489 32.4428 16.8412 32.469 16.8211 32.3472C16.7886 32.1204 16.7624 31.8926 16.7425 31.6643L13.6715 31.9695ZM13.525 30.505C13.4279 30.3785 13.4587 30.32 13.5127 30.6221C13.5636 30.9073 13.6052 31.3112 13.6715 31.9695L16.7394 31.6627C16.6777 31.0553 16.6253 30.5096 16.5467 30.0748C16.4712 29.6586 16.3386 29.1113 15.9763 28.6365L13.525 30.505ZM13.525 30.505L15.9763 28.6365C15.6464 28.2035 15.2077 27.8656 14.7048 27.6571C14.202 27.4486 13.6529 27.3769 13.1134 27.4494L13.525 30.505ZM12.3857 31.4377C12.8991 31.0183 13.2121 30.7624 13.451 30.5975C13.7023 30.4232 13.6838 30.4849 13.525 30.505L13.1134 27.4494C12.5214 27.5295 12.0404 27.8225 11.692 28.066C11.3297 28.3158 10.9057 28.6642 10.434 29.0512L12.3857 31.4377ZM10.8194 32.4397C11.1298 32.3365 11.4217 32.1846 11.6843 31.9896C11.9001 31.8354 12.1422 31.6365 12.3857 31.4377L10.4355 29.0527C10.2597 29.2 10.0813 29.3424 9.8975 29.4797C9.79729 29.5522 9.81117 29.5291 9.88362 29.5044L10.8194 32.4397ZM8.65492 32.3318C9.33959 32.6285 10.1086 32.6669 10.8194 32.4397L9.88054 29.5029L8.65492 32.3318ZM7.19496 31.1787C7.4185 31.4022 7.63896 31.6227 7.83937 31.7984C8.05058 31.9834 8.31421 32.1854 8.65646 32.3334L9.88054 29.5029C9.95146 29.5337 9.96225 29.5584 9.86975 29.4767C9.7009 29.322 9.53639 29.1626 9.37642 28.9987L7.19496 31.1787ZM5.81825 29.8004L7.1965 31.1787L9.37642 28.9987L7.99817 27.6205L5.81825 29.8004ZM4.66508 28.342C4.81154 28.6812 5.0135 28.9463 5.1985 29.1591C5.37425 29.358 5.59471 29.5784 5.81825 29.8004L7.99817 27.6205C7.83431 27.4605 7.67494 27.296 7.52025 27.1272C7.43854 27.0347 7.46321 27.0455 7.49404 27.1164L4.66508 28.342ZM4.55717 26.1775C4.33004 26.8883 4.36838 27.6573 4.66508 28.342L7.49404 27.1164L4.55717 26.1775ZM5.55925 24.6112C5.3678 24.839 5.18373 25.0729 5.00733 25.3126C4.81236 25.5752 4.6604 25.8671 4.55717 26.1775L7.49404 27.1164C7.46937 27.1888 7.44779 27.2027 7.51871 27.101C7.59887 26.9884 7.71912 26.8389 7.94575 26.5629L5.55925 24.6112ZM6.49042 23.4719C6.512 23.3131 6.57367 23.2946 6.39946 23.5459C6.2345 23.7848 5.97858 24.0993 5.55925 24.6112L7.94575 26.5629C8.33117 26.0912 8.68112 25.6672 8.93242 25.3049C9.17446 24.9565 9.46737 24.4755 9.54754 23.8835L6.49042 23.4719ZM6.49042 23.4719L9.54754 23.8835C9.62 23.344 9.54834 22.7949 9.33984 22.2921C9.13134 21.7892 8.79343 21.3505 8.36046 21.0206L6.49042 23.4719ZM5.02583 23.3254C5.68567 23.3917 6.08958 23.4333 6.37479 23.4842C6.67542 23.5382 6.61837 23.569 6.49042 23.4719L8.36046 21.0206C7.88562 20.6583 7.33987 20.5257 6.92054 20.4502C6.48733 20.3731 5.94158 20.3192 5.33262 20.2575L5.02583 23.3254ZM3.20975 22.9277C3.53967 23.0972 3.86342 23.1743 4.14092 23.2206C4.403 23.2637 4.71287 23.2961 5.02737 23.3269L5.33262 20.2575C5.1043 20.2381 4.8781 20.2124 4.65121 20.1804C4.52787 20.1588 4.55408 20.1511 4.62346 20.1866L3.20975 22.9277ZM1.7575 21.3212C2.0315 22.0155 2.54804 22.5868 3.21129 22.9292L4.625 20.1881L1.7575 21.3212ZM1.54167 19.4743C1.54167 19.7888 1.54167 20.1018 1.55862 20.367C1.57712 20.6475 1.62029 20.9775 1.75904 21.3228L4.625 20.1866C4.65275 20.259 4.6435 20.2837 4.63579 20.1604C4.62583 19.9318 4.62223 19.7031 4.625 19.4743H1.54167ZM1.54167 17.5257V19.4743H4.625V17.5257H1.54167ZM1.7575 15.6772C1.64086 15.9832 1.57373 16.3059 1.55862 16.633C1.54012 16.8982 1.54167 17.2112 1.54167 17.5272H4.625C4.625 17.1695 4.625 16.9768 4.63579 16.8381C4.6435 16.7147 4.65275 16.7394 4.625 16.8119L1.7575 15.6772ZM3.21129 14.0723C2.5486 14.4139 2.03213 14.9841 1.7575 15.6772L4.625 16.8119L3.21129 14.0723ZM5.02892 13.6715C4.71442 13.7039 4.40454 13.7332 4.14246 13.7794C3.86496 13.8257 3.54121 13.9027 3.21129 14.0723L4.625 16.8119C4.55562 16.8473 4.53096 16.8396 4.65275 16.8196C4.87963 16.787 5.10737 16.7608 5.33571 16.7409L5.02892 13.6715ZM6.4935 13.5266C6.62146 13.4295 6.6785 13.4603 6.37633 13.5142C6.09112 13.5651 5.68721 13.6067 5.02892 13.673L5.33571 16.7409C5.94158 16.6793 6.48887 16.6269 6.92362 16.5482C7.34142 16.4727 7.88871 16.3401 8.36354 15.9778L6.4935 13.5266ZM6.4935 13.5266L8.36354 15.9778C8.79623 15.6477 9.13384 15.209 9.34207 14.7061C9.55029 14.2033 9.62171 13.6543 9.54908 13.1149L6.4935 13.5266ZM5.56079 12.3873C5.98012 12.8991 6.23604 13.2136 6.40254 13.4526C6.57675 13.7039 6.51508 13.6854 6.4935 13.5266L9.54908 13.1149C9.46892 12.5229 9.17754 12.0435 8.93396 11.6935C8.68267 11.3312 8.33271 10.9073 7.94729 10.4355L5.56079 12.3873ZM4.55871 10.8194C4.67125 11.174 4.84546 11.4561 5.00887 11.6858C5.16304 11.9017 5.36192 12.1437 5.56079 12.3873L7.94729 10.4355C7.79995 10.2597 7.65755 10.0813 7.52025 9.89749C7.44779 9.79728 7.47246 9.80962 7.49558 9.88207L4.55871 10.8194ZM4.66662 8.65645C4.37031 9.34067 4.33197 10.1091 4.55871 10.8194L7.49558 9.88207L4.66662 8.65645ZM5.81979 7.19649C5.59625 7.42003 5.37579 7.63895 5.20004 7.83937C4.97999 8.08169 4.79993 8.3575 4.66662 8.65645L7.49558 9.88207C7.46475 9.95299 7.44008 9.96378 7.52179 9.86974C7.61429 9.76491 7.74842 9.62924 7.99971 9.37641L5.81979 7.19649ZM7.19804 5.81978L5.81979 7.19649L7.99971 9.37641L9.3795 7.9997L7.19804 5.81978ZM8.65646 4.66507C8.35741 4.79885 8.08159 4.97944 7.83937 5.20003C7.61901 5.39969 7.40512 5.60638 7.19804 5.81978L9.3795 7.9997C9.63079 7.74687 9.76646 7.61274 9.87129 7.52178C9.96379 7.43853 9.953 7.4632 9.88208 7.49403L8.65646 4.66507ZM10.821 4.55716C10.1102 4.33003 9.34113 4.36837 8.65646 4.66507L9.88208 7.49403L10.821 4.55716ZM12.3857 5.55924C12.1422 5.36037 11.9032 5.16303 11.6858 5.00887C11.4233 4.81335 11.1314 4.66087 10.821 4.55716L9.88208 7.49403C9.80962 7.47091 9.79575 7.44778 9.8975 7.5187C10.01 7.60041 10.1596 7.72066 10.4355 7.94728L12.3857 5.55924ZM13.5266 6.49195C13.6854 6.51353 13.7039 6.5752 13.4526 6.40099C13.0886 6.133 12.7338 5.85277 12.3888 5.56078L10.4355 7.94728C10.9073 8.3327 11.3297 8.68112 11.692 8.93395C12.0404 9.17599 12.5214 9.46737 13.1134 9.54753L13.5266 6.49195ZM13.5266 6.49195L13.115 9.54753C13.6545 9.61999 14.2035 9.54833 14.7064 9.33983C15.2092 9.13133 15.6479 8.79342 15.9778 8.36045L13.5266 6.49195ZM13.673 5.02737C13.6067 5.6872 13.5651 6.09112 13.5142 6.37632C13.4603 6.67695 13.4295 6.61991 13.5266 6.49195L15.9778 8.36045C16.3401 7.88562 16.4727 7.33987 16.5482 6.92207C16.6253 6.48887 16.6808 5.94157 16.741 5.33416L13.673 5.02737ZM14.0708 3.21128C13.9243 3.50415 13.8254 3.81848 13.7779 4.14245C13.7347 4.40453 13.7039 4.71441 13.673 5.02891L16.741 5.33416C16.761 5.1059 16.7867 4.87972 16.818 4.65274C16.8396 4.52941 16.8473 4.55716 16.8119 4.62499L14.0708 3.21128ZM15.6787 1.75749C14.9845 2.03149 14.4131 2.54804 14.0708 3.21128L16.8119 4.62499L15.6787 1.75749ZM17.5257 1.54166C17.2112 1.54166 16.8982 1.54166 16.633 1.55862C16.3059 1.57372 15.9832 1.64086 15.6772 1.75749L16.8134 4.62499C16.741 4.65274 16.7163 4.64349 16.8396 4.63578C16.9784 4.62653 17.1711 4.62499 17.5272 4.62499L17.5257 1.54166ZM19.4743 1.54166H17.5257V4.62499H19.4743V1.54166ZM21.3212 1.75749C21.0152 1.64086 20.6926 1.57372 20.3654 1.55862C20.1033 1.54012 19.7904 1.54166 19.4759 1.54166V4.62499C19.832 4.62499 20.0247 4.62499 20.1635 4.63578C20.2868 4.64349 20.2606 4.65274 20.1881 4.62499L21.3212 1.75749ZM22.9292 3.21128C22.5869 2.54804 22.0155 2.03149 21.3212 1.75749L20.1881 4.62499L22.9292 3.21128ZM23.125 18.5C23.125 19.7266 22.6377 20.903 21.7704 21.7704C20.903 22.6377 19.7266 23.125 18.5 23.125V26.2083C20.5444 26.2083 22.505 25.3962 23.9506 23.9506C25.3962 22.505 26.2083 20.5444 26.2083 18.5H23.125ZM18.5 13.875C19.7266 13.875 20.903 14.3623 21.7704 15.2296C22.6377 16.097 23.125 17.2734 23.125 18.5H26.2083C26.2083 16.4556 25.3962 14.495 23.9506 13.0494C22.505 11.6038 20.5444 10.7917 18.5 10.7917V13.875ZM13.875 18.5C13.875 17.2734 14.3623 16.097 15.2296 15.2296C16.097 14.3623 17.2734 13.875 18.5 13.875V10.7917C16.4556 10.7917 14.495 11.6038 13.0494 13.0494C11.6038 14.495 10.7917 16.4556 10.7917 18.5H13.875ZM18.5 23.125C17.2734 23.125 16.097 22.6377 15.2296 21.7704C14.3623 20.903 13.875 19.7266 13.875 18.5H10.7917C10.7917 20.5444 11.6038 22.505 13.0494 23.9506C14.495 25.3962 16.4556 26.2083 18.5 26.2083V23.125Z" fill="black"/>
</svg>
