<svg width="24" height="24" viewBox="0 0 24 24" fill="none" xmlns="http://www.w3.org/2000/svg">
<path d="M4 10.27C3.69692 10.4458 3.44535 10.6981 3.27047 11.0017C3.09559 11.3054 3.00354 11.6496 3.00354 12C3.00354 12.3504 3.09559 12.6946 3.27047 12.9982C3.44535 13.3018 3.69692 13.5542 4 13.73L18 21.73C18.3039 21.9054 18.6486 21.9978 18.9995 21.9979C19.3504 21.998 19.6951 21.9058 19.9991 21.7305C20.3031 21.5552 20.5556 21.303 20.7313 20.9993C20.907 20.6955 20.9996 20.3509 21 20V3.99998C20.9996 3.64908 20.907 3.30445 20.7313 3.00069C20.5556 2.69694 20.3031 2.44476 19.9991 2.26946C19.6951 2.09417 19.3504 2.00194 18.9995 2.00203C18.6486 2.00212 18.3039 2.09453 18 2.26998L4 10.27Z" stroke="black" stroke-width="2" stroke-linecap="round" stroke-linejoin="round"/>
</svg>
