<svg width="33" height="33" viewBox="0 0 33 33" fill="none" xmlns="http://www.w3.org/2000/svg">
<path d="M17.875 24.75V13.75L22.6875 18.5625L24.64 16.61L16.5 8.47L8.36 16.61L10.3125 18.5625L15.125 13.75V24.75H17.875ZM16.5 2.75C18.3057 2.75 20.0937 3.10565 21.7619 3.79666C23.4301 4.48766 24.9459 5.50048 26.2227 6.77728C27.4995 8.05409 28.5123 9.56988 29.2033 11.2381C29.8943 12.9063 30.25 14.6943 30.25 16.5C30.25 20.1467 28.8013 23.6441 26.2227 26.2227C23.6441 28.8013 20.1467 30.25 16.5 30.25C14.6943 30.25 12.9063 29.8943 11.2381 29.2033C9.56988 28.5123 8.05409 27.4995 6.77728 26.2227C4.19866 23.6441 2.75 20.1467 2.75 16.5C2.75 12.8533 4.19866 9.35591 6.77728 6.77728C9.35591 4.19866 12.8533 2.75 16.5 2.75Z" fill="#115EF7"/>
</svg>
