<svg width="19" height="12" viewBox="0 0 19 12" fill="none" xmlns="http://www.w3.org/2000/svg">
<path fill-rule="evenodd" clip-rule="evenodd" d="M1.09867 7.27273H2.19733C2.80411 7.27273 3.296 7.76114 3.296 8.36364V10.5455C3.296 11.1479 2.80411 11.6364 2.19733 11.6364H1.09867C0.49189 11.6364 0 11.1479 0 10.5455V8.36364C0 7.76114 0.49189 7.27273 1.09867 7.27273ZM6.22578 5.09091H7.32444C7.93122 5.09091 8.42311 5.57933 8.42311 6.18182V10.5455C8.42311 11.1479 7.93122 11.6364 7.32444 11.6364H6.22578C5.619 11.6364 5.12711 11.1479 5.12711 10.5455V6.18182C5.12711 5.57933 5.619 5.09091 6.22578 5.09091ZM11.3529 2.54545H12.4516C13.0583 2.54545 13.5502 3.03387 13.5502 3.63636V10.5455C13.5502 11.1479 13.0583 11.6364 12.4516 11.6364H11.3529C10.7461 11.6364 10.2542 11.1479 10.2542 10.5455V3.63636C10.2542 3.03387 10.7461 2.54545 11.3529 2.54545ZM16.48 0H17.5787C18.1854 0 18.6773 0.488417 18.6773 1.09091V10.5455C18.6773 11.1479 18.1854 11.6364 17.5787 11.6364H16.48C15.8732 11.6364 15.3813 11.1479 15.3813 10.5455V1.09091C15.3813 0.488417 15.8732 0 16.48 0V0Z" fill="#060606"/>
</svg>
