<svg width="24" height="24" viewBox="0 0 24 24" fill="none" xmlns="http://www.w3.org/2000/svg">
<path d="M3 9.4C3 7.16 3 6.04 3.436 5.184C3.81949 4.43139 4.43139 3.81949 5.184 3.436C6.04 3 7.16 3 9.4 3H14.6C16.84 3 17.96 3 18.816 3.436C19.5686 3.81949 20.1805 4.43139 20.564 5.184C21 6.04 21 7.16 21 9.4V14.6C21 16.84 21 17.96 20.564 18.816C20.1805 19.5686 19.5686 20.1805 18.816 20.564C17.96 21 16.84 21 14.6 21H9.4C7.16 21 6.04 21 5.184 20.564C4.43139 20.1805 3.81949 19.5686 3.436 18.816C3 17.96 3 16.84 3 14.6V9.4Z" stroke="black" stroke-width="1.5" stroke-linecap="round" stroke-linejoin="round"/>
</svg>
