<svg width="27" height="27" viewBox="0 0 27 27" fill="none" xmlns="http://www.w3.org/2000/svg">
<path fill-rule="evenodd" clip-rule="evenodd" d="M13.0536 0.11851C13.1896 0.0408483 13.3434 0 13.5 0C13.6566 0 13.8104 0.0408483 13.9464 0.11851L26.5464 7.31851C26.6841 7.39719 26.7987 7.51089 26.8783 7.64808C26.958 7.78527 26.9999 7.94107 27 8.09971V9.39571C27 13.3665 25.7065 17.2291 23.3151 20.399C20.9237 23.5689 17.5647 25.8734 13.7466 26.9637C13.5854 27.0096 13.4146 27.0096 13.2534 26.9637C9.43527 25.8734 6.07628 23.5689 3.6849 20.399C1.29352 17.2291 -4.94809e-05 13.3665 1.41956e-09 9.39571L1.41956e-09 8.09971C5.11701e-05 7.94107 0.0420323 7.78527 0.12169 7.64808C0.201348 7.51089 0.315851 7.39719 0.4536 7.31851L13.0536 0.11851ZM12.7296 19.2795L20.502 9.56131L19.098 8.43811L12.4704 16.7199L7.776 12.8085L6.624 14.1909L12.7296 19.2795Z" fill="#115EF7"/>
</svg>
