<svg width="536" height="211" viewBox="0 0 536 211" fill="none" xmlns="http://www.w3.org/2000/svg">
<path fill-rule="evenodd" clip-rule="evenodd" d="M536 108.305L513.883 93.1419C491.767 80.1454 446.233 54.1523 402 67.1488C357.767 80.1454 312.233 134.298 268 171.121C223.767 205.779 178.233 223.107 134 201.446C89.767 179.786 44.233 116.969 22.1165 84.4775L0 54.1523V0H22.1165C44.233 0 89.767 0 134 0C178.233 0 223.767 0 268 0C312.233 0 357.767 0 402 0C446.233 0 491.767 0 513.883 0H536V108.305Z" fill="#115EF7"/>
</svg>
