<svg width="28" height="26" viewBox="0 0 28 26" fill="none" xmlns="http://www.w3.org/2000/svg">
<path d="M10.9538 16.9698L12.2768 21.2669C12.7725 22.8753 15.2275 22.8753 15.7232 21.2669L17.0447 16.9698C17.1284 16.698 17.2853 16.4504 17.5006 16.2505C17.7159 16.0506 17.9825 15.905 18.2752 15.8273L22.9028 14.6001C24.635 14.1398 24.635 11.8602 22.9028 11.3999L18.2752 10.1727C17.9825 10.095 17.7159 9.94937 17.5006 9.74946C17.2853 9.54955 17.1284 9.30201 17.0447 9.03019L15.7232 4.73313C15.2275 3.12469 12.7725 3.12469 12.2768 4.73313L10.9553 9.03019C10.8716 9.30201 10.7147 9.54955 10.4994 9.74946C10.2841 9.94937 10.0175 10.095 9.72481 10.1727L5.09722 11.3999C3.36505 11.8602 3.36505 14.1398 5.09722 14.6001L9.72481 15.8273C10.0175 15.905 10.2841 16.0506 10.4994 16.2505C10.7147 16.4504 10.8716 16.698 10.9553 16.9698M2.69607 23.6989L3.25753 25.7899C3.3322 26.07 3.76225 26.07 3.83691 25.7899L4.39987 23.6989C4.41306 23.6504 4.44015 23.6061 4.47827 23.5707C4.51639 23.5353 4.56412 23.5101 4.61639 23.4979L6.86822 22.9751C7.16986 22.9058 7.16986 22.5079 6.86822 22.4371L4.61639 21.9144C4.56412 21.9022 4.51639 21.877 4.47827 21.8416C4.44015 21.8062 4.41306 21.7619 4.39987 21.7133L3.83691 19.6224C3.76225 19.3423 3.3322 19.3423 3.25753 19.6224L2.69458 21.7133C2.68139 21.7619 2.6543 21.8062 2.61618 21.8416C2.57806 21.877 2.53033 21.9022 2.47805 21.9144L0.226228 22.4371C-0.0754093 22.5065 -0.0754093 22.9044 0.226228 22.9751L2.47805 23.4979C2.53033 23.5101 2.57806 23.5353 2.61618 23.5707C2.6543 23.6061 2.68288 23.6504 2.69607 23.6989ZM23.6016 4.28665L24.1631 6.37763C24.2377 6.65773 24.6663 6.65773 24.7425 6.37763L25.3054 4.28665C25.3186 4.23811 25.3457 4.19379 25.3838 4.15839C25.4219 4.123 25.4697 4.09784 25.5219 4.0856L27.7738 3.56285C28.0754 3.49352 28.0754 3.09418 27.7738 3.02485L25.5219 2.50211C25.4697 2.48986 25.4219 2.46471 25.3838 2.42931C25.3457 2.39391 25.3186 2.34959 25.3054 2.30105L24.7425 0.210069C24.6678 -0.0700229 24.2392 -0.0700229 24.1631 0.210069L23.6001 2.30105C23.5869 2.34959 23.5598 2.39391 23.5217 2.42931C23.4836 2.46471 23.4359 2.48986 23.3836 2.50211L21.1318 3.02485C20.8301 3.09418 20.8301 3.49352 21.1318 3.56285L23.3836 4.0856C23.4359 4.09784 23.4836 4.123 23.5217 4.15839C23.5598 4.19379 23.5884 4.23811 23.6016 4.28665Z" stroke="black" stroke-width="1.5" stroke-miterlimit="10" stroke-linecap="round" stroke-linejoin="round"/>
</svg>
