<svg width="17" height="12" viewBox="0 0 17 12" fill="none" xmlns="http://www.w3.org/2000/svg">
<path fill-rule="evenodd" clip-rule="evenodd" d="M8.39008 2.48436C10.8246 2.48446 13.166 3.4133 14.9304 5.0789C15.0633 5.20749 15.2757 5.20587 15.4065 5.07527L16.6766 3.80254C16.7429 3.7363 16.7798 3.64657 16.7792 3.55321C16.7787 3.45985 16.7407 3.37055 16.6737 3.30508C12.0427 -1.10169 4.73676 -1.10169 0.105771 3.30508C0.0386883 3.3705 0.00062624 3.45977 7.65856e-06 3.55313C-0.000610923 3.64649 0.036265 3.73625 0.102475 3.80254L1.3729 5.07527C1.50367 5.20607 1.71621 5.20769 1.84899 5.0789C3.61361 3.41319 5.95532 2.48435 8.39008 2.48436ZM8.39008 6.62508C9.7277 6.625 11.0176 7.11867 12.0091 8.01017C12.1432 8.1367 12.3545 8.13396 12.4852 8.00399L13.7538 6.73127C13.8206 6.66451 13.8577 6.57394 13.8567 6.47984C13.8557 6.38573 13.8168 6.29593 13.7486 6.23054C10.7293 3.44176 6.05344 3.44176 3.03408 6.23054C2.96588 6.29593 2.92697 6.38577 2.92607 6.47991C2.92518 6.57405 2.96238 6.6646 3.02932 6.73127L4.29755 8.00399C4.42828 8.13396 4.63953 8.1367 4.77364 8.01017C5.7645 7.11926 7.05335 6.62563 8.39008 6.62508ZM10.828 9.66254C10.8959 9.59642 10.9332 9.50544 10.9313 9.41107C10.9294 9.3167 10.8883 9.2273 10.8178 9.16399C9.41634 7.98703 7.36383 7.98703 5.9624 9.16399C5.89184 9.22725 5.8507 9.31662 5.84869 9.41099C5.84668 9.50536 5.88398 9.59637 5.95178 9.66254L8.14655 11.8614C8.21087 11.9261 8.29858 11.9624 8.39009 11.9624C8.48159 11.9624 8.5693 11.9261 8.63362 11.8614L10.828 9.66254Z" fill="#060606"/>
</svg>
